<svg width="269" height="215" viewBox="0 0 269 215" fill="none" xmlns="http://www.w3.org/2000/svg">
<g clip-path="url(#clip0)">
<path d="M47.8073 146.713C48.015 147.072 48.2916 147.387 48.621 147.64C48.9505 147.892 49.3264 148.077 49.7273 148.184C50.1281 148.291 50.5461 148.317 50.9572 148.262C51.3684 148.207 51.7646 148.071 52.1234 147.863C52.4821 147.654 52.7962 147.376 53.0477 147.046C53.2993 146.716 53.4834 146.339 53.5894 145.937C53.6955 145.536 53.7214 145.117 53.6658 144.705C53.6101 144.293 53.474 143.897 53.2651 143.538C53.1769 143.39 53.0775 143.248 52.9679 143.115L55.6226 124.164L55.7021 123.596L56.2413 119.729L56.3208 119.171L56.027 119.185L50.8837 119.42L49.5045 119.483L49.3316 123.011L48.3534 142.845C47.8423 143.335 47.5106 143.983 47.4115 144.684C47.3124 145.386 47.4518 146.1 47.8073 146.713Z" fill="#A0616A"/>
<path d="M55.6868 123.768L49.1558 123.168C48.8171 123.136 48.5048 122.971 48.2869 122.709C48.0691 122.447 47.9634 122.11 47.993 121.77L49.2044 108.167C49.2631 107.506 49.4535 106.864 49.7644 106.278C50.0753 105.693 50.5003 105.175 51.0143 104.757C51.5283 104.339 52.1209 104.028 52.7569 103.843C53.3929 103.658 54.0595 103.603 54.7172 103.681C55.3749 103.759 56.0104 103.968 56.5859 104.296C57.1615 104.624 57.6656 105.064 58.0682 105.591C58.4709 106.118 58.764 106.72 58.9301 107.362C59.0963 108.004 59.1323 108.673 59.0358 109.329L57.0774 122.672C57.0325 122.978 56.8793 123.258 56.646 123.46C56.4126 123.662 56.1145 123.773 55.806 123.774C55.7665 123.774 55.7267 123.772 55.6868 123.768Z" fill="#078080"/>
<path d="M50.7373 112.778C50.0767 110.903 50.0461 108.864 50.6501 106.971C51.2541 105.078 52.4595 103.435 54.0827 102.291C56.5455 100.604 59.9156 99.9978 63.545 104.325C70.8037 112.981 72.7048 122.502 72.7048 122.502L57.8417 124.925C57.8417 124.925 52.7866 118.737 50.7373 112.778Z" fill="#078080"/>
<g opacity="0.2">
<path opacity="0.2" d="M60.0917 102.248C58.9938 105.278 57.8728 108.429 57.8002 111.812C57.7279 114.397 58.3231 116.956 59.5283 119.243C60.693 121.358 62.394 122.904 64.2666 123.55C64.6181 123.699 65.0055 123.743 65.3814 123.676C65.5903 123.617 65.7801 123.504 65.9319 123.349C66.0838 123.194 66.1925 123.002 66.2471 122.791C66.4166 122.195 66.2129 121.532 66.0126 120.954C63.7907 114.535 62.7136 108.959 60.4916 102.54L60.0917 102.248Z" fill="#232323"/>
</g>
<path d="M74.7757 210.274L79.0134 210.274L81.0293 193.902L74.775 193.902L74.7757 210.274Z" fill="#A0616A"/>
<path d="M87.1862 214.215L73.8679 214.215L73.8676 209.061L82.0402 209.061C82.716 209.061 83.3851 209.194 84.0094 209.453C84.6337 209.712 85.201 210.092 85.6789 210.57C86.1567 211.049 86.5358 211.617 86.7944 212.242C87.053 212.868 87.1861 213.538 87.1862 214.215Z" fill="#232323"/>
<path d="M39.9359 206.572L43.9596 207.904L51.004 192.993L45.0654 191.028L39.9359 206.572Z" fill="#A0616A"/>
<path d="M50.4843 214.216L37.8388 210.029L39.4537 205.135L47.2134 207.704C48.5092 208.133 49.5818 209.06 50.1952 210.281C50.8086 211.503 50.9126 212.918 50.4843 214.216L50.4843 214.216Z" fill="#232323"/>
<path d="M60.0666 97.9987C64.7553 97.9987 68.5563 94.1916 68.5563 89.4953C68.5563 84.799 64.7553 80.9919 60.0666 80.9919C55.378 80.9919 51.577 84.799 51.577 89.4953C51.577 94.1916 55.378 97.9987 60.0666 97.9987Z" fill="#A0616A"/>
<path d="M67.4999 205.716L63.5645 179.7C63.5225 179.422 63.3855 179.168 63.177 178.98C62.9684 178.792 62.7013 178.683 62.4212 178.671C62.141 178.659 61.8654 178.744 61.6413 178.913C61.4172 179.082 61.2586 179.323 61.1926 179.596L55.1997 204.39C55.1052 204.769 54.8725 205.1 54.5471 205.317C54.2218 205.534 53.8272 205.621 53.441 205.561L36.9101 202.9C36.6909 202.865 36.4818 202.783 36.2968 202.66C36.1118 202.537 35.9553 202.376 35.8376 202.187C35.72 201.999 35.644 201.787 35.6148 201.567C35.5856 201.346 35.6039 201.122 35.6683 200.909L57.2236 129.729C57.2849 129.526 57.2921 129.311 57.2447 129.105L56.527 125.99C56.4482 125.653 56.4845 125.298 56.6303 124.983C56.7761 124.669 57.0228 124.412 57.3312 124.254C60.2664 122.754 67.6991 119.636 73.3112 123.052C73.4934 123.163 73.651 123.31 73.7746 123.484C73.8981 123.659 73.985 123.856 74.0299 124.065L90.8689 203.337C90.9147 203.552 90.9143 203.775 90.8678 203.991C90.8212 204.206 90.7296 204.409 90.5989 204.586C90.4683 204.764 90.3015 204.911 90.1097 205.019C89.9179 205.127 89.7054 205.193 89.4863 205.213L69.1766 207.035C69.1298 207.039 69.0833 207.041 69.0372 207.041C68.6654 207.04 68.306 206.906 68.0241 206.663C67.7422 206.42 67.5562 206.084 67.4999 205.716Z" fill="#232323"/>
<path d="M80.938 140.95C81.1399 140.538 81.249 140.086 81.2577 139.627C81.2664 139.167 81.1744 138.711 80.9883 138.292C80.8021 137.872 80.5263 137.498 80.1802 137.196C79.8342 136.894 79.4263 136.673 78.9854 136.546L68.3762 114.829L62.9033 118.911L75.0129 138.91C74.8496 139.666 74.9689 140.456 75.3481 141.13C75.7273 141.803 76.3402 142.315 77.0705 142.566C77.8009 142.818 78.598 142.792 79.3108 142.494C80.0236 142.197 80.6025 141.647 80.938 140.95H80.938Z" fill="#A0616A"/>
<path d="M62.238 120.267L55.6362 108.32C55.2368 107.601 55.0225 106.795 55.0127 105.973C55.0029 105.151 55.1979 104.339 55.58 103.612C55.8925 102.999 56.3345 102.462 56.8753 102.038C57.5725 101.482 58.4067 101.124 59.2899 101.003C60.1731 100.881 61.0726 101.001 61.8937 101.349C63.0357 101.846 63.9563 102.745 64.4817 103.876L70.2687 115.921C70.4115 116.218 70.4351 116.559 70.3347 116.873C70.2343 117.187 70.0175 117.451 69.729 117.61L63.9838 120.772C63.6852 120.936 63.3339 120.975 63.0067 120.881C62.6796 120.786 62.4032 120.565 62.238 120.267Z" fill="#078080"/>
<path d="M55.8514 82.0734C56.5565 81.8269 57.2132 81.4592 57.7922 80.9866C58.0791 80.7467 58.2995 80.4369 58.4324 80.087C58.5652 79.7372 58.6059 79.3589 58.5506 78.9887C58.324 77.9731 57.1374 77.4185 56.1048 77.5328C55.0722 77.6472 54.1672 78.2497 53.3081 78.8348C52.5513 79.3501 51.7708 79.8899 51.2991 80.6754C50.8274 81.4609 50.7554 82.5666 51.3827 83.234C51.9983 83.889 53.0773 83.899 53.8833 83.5021C54.6892 83.1052 55.2857 82.391 55.8571 81.697L55.8514 82.0734Z" fill="#232323"/>
<path d="M53.5307 79.1133C53.9731 76.7582 51.6542 74.5187 49.2626 74.4527C46.871 74.3866 44.6891 75.985 43.3499 77.9709C40.5206 82.1668 40.8371 87.695 41.6816 92.6871C42.526 97.6792 43.7847 102.831 42.4905 107.725C41.7552 110.364 40.3222 112.754 38.3428 114.644C36.3634 116.534 33.9111 117.853 31.245 118.463C33.6005 120.188 36.9642 119.617 39.5337 118.233C45.2404 115.158 48.6306 108.27 47.5902 101.863C47.077 98.7036 45.6201 95.7878 44.6435 92.7397C43.6668 89.6916 43.2027 86.2431 44.6311 83.3794C46.0596 80.5156 49.9638 78.7703 52.6202 80.5504L53.5307 79.1133Z" fill="#232323"/>
<path d="M59.8663 92.9041C59.3973 91.5264 59.0011 89.7637 60.5489 88.9686C60.8832 88.8063 61.2465 88.7126 61.6175 88.693C61.9885 88.6733 62.3596 88.7281 62.7091 88.8542C64.1646 89.3465 65.7749 89.7605 67.3331 89.5191C67.9139 89.4455 68.4741 89.2558 68.9804 88.9612C69.4866 88.6665 69.9286 88.273 70.2801 87.804C71.3948 86.1894 70.9087 83.8428 69.5822 82.3977C68.7656 81.5385 67.7138 80.94 66.5588 80.6773C65.4038 80.4145 64.1971 80.4992 63.09 80.9207C61.2561 79.605 58.7225 79.4902 56.6311 80.337C54.5397 81.1837 52.8736 82.8914 51.7533 84.8525C50.7478 86.5319 50.2333 88.4603 50.2682 90.4183C50.3389 91.79 50.7385 93.1246 51.4333 94.3089C52.1281 95.4932 53.0975 96.4923 54.2596 97.2217C54.7098 97.5179 55.2298 97.6903 55.7675 97.7218C56.3051 97.7533 56.8416 97.6426 57.3232 97.401C57.3232 97.401 58.6772 96.6389 59.2869 95.5075C59.7552 94.6385 60.1168 93.6402 59.8663 92.9041Z" fill="#232323"/>
<path d="M132.04 215H0.345654C0.253981 215 0.166062 214.964 0.101239 214.899C0.0364168 214.834 0 214.746 0 214.654C0 214.562 0.0364168 214.474 0.101239 214.409C0.166062 214.344 0.253981 214.308 0.345654 214.308H132.04C132.132 214.308 132.219 214.344 132.284 214.409C132.349 214.474 132.386 214.562 132.386 214.654C132.386 214.746 132.349 214.834 132.284 214.899C132.219 214.964 132.132 215 132.04 215Z" fill="#F45D48"/>
<path d="M210.912 133.071H169.039C167.899 133.069 166.806 132.615 166 131.808C165.194 131 164.741 129.906 164.739 128.764V61.3049C164.741 60.1632 165.194 59.0686 166 58.2613C166.806 57.454 167.899 56.9998 169.039 56.9985H210.912V133.071ZM169.039 57.691C168.082 57.692 167.165 58.0731 166.489 58.7507C165.812 59.4282 165.432 60.3468 165.431 61.3049V128.764C165.432 129.722 165.812 130.641 166.489 131.318C167.165 131.996 168.082 132.377 169.039 132.378H210.221V57.691H169.039Z" fill="#F45D48"/>
<path d="M209.83 56.9985H251.703C252.843 56.9998 253.936 57.454 254.742 58.2613C255.548 59.0686 256.001 60.1632 256.003 61.3049V128.764C256.001 129.906 255.548 131 254.742 131.808C253.936 132.615 252.843 133.069 251.703 133.071H209.83V56.9985Z" fill="#F45D48"/>
<path d="M179.719 39.5288H179.246V61.5418H179.719V39.5288Z" fill="#232323"/>
<path d="M179.624 40.0021C178.643 40.0021 177.683 39.7106 176.867 39.1644C176.051 38.6182 175.415 37.8419 175.039 36.9337C174.664 36.0254 174.565 35.026 174.757 34.0617C174.948 33.0975 175.421 32.2118 176.115 31.5167C176.809 30.8215 177.693 30.3481 178.656 30.1563C179.619 29.9645 180.616 30.0629 181.523 30.4392C182.43 30.8154 183.205 31.4525 183.75 32.2699C184.296 33.0873 184.587 34.0484 184.587 35.0315C184.587 36.3498 184.064 37.6141 183.133 38.5463C182.203 39.4784 180.94 40.0021 179.624 40.0021ZM179.624 30.5342C178.736 30.5342 177.868 30.798 177.13 31.2921C176.391 31.7863 175.816 32.4887 175.476 33.3104C175.136 34.1322 175.047 35.0365 175.22 35.9088C175.394 36.7812 175.821 37.5826 176.449 38.2115C177.077 38.8405 177.877 39.2688 178.748 39.4423C179.619 39.6159 180.522 39.5268 181.342 39.1864C182.163 38.846 182.864 38.2696 183.357 37.53C183.851 36.7904 184.114 35.9209 184.114 35.0315C184.114 33.8387 183.641 32.6948 182.799 31.8514C181.957 31.008 180.815 30.5342 179.624 30.5342Z" fill="#232323"/>
<path d="M228.075 9.94141H227.603V60.8316H228.075V9.94141Z" fill="#232323"/>
<path d="M227.98 9.94134C226.999 9.94134 226.039 9.64981 225.223 9.10363C224.407 8.55745 223.771 7.78113 223.396 6.87286C223.02 5.96459 222.922 4.96516 223.113 4.00094C223.305 3.03673 223.777 2.15104 224.471 1.45588C225.165 0.760719 226.05 0.287307 227.012 0.0955124C227.975 -0.0962819 228.973 0.00215308 229.88 0.378371C230.786 0.754589 231.561 1.39169 232.107 2.20912C232.652 3.02654 232.943 3.98757 232.943 4.97067C232.943 6.28898 232.42 7.55328 231.49 8.48546C230.559 9.41765 229.297 9.94134 227.98 9.94134ZM227.98 0.473404C227.092 0.473403 226.224 0.73716 225.486 1.23133C224.748 1.72549 224.172 2.42787 223.832 3.24964C223.492 4.07141 223.403 4.97566 223.577 5.84805C223.75 6.72043 224.178 7.52177 224.806 8.15073C225.433 8.77968 226.234 9.208 227.104 9.38153C227.975 9.55506 228.878 9.466 229.699 9.12561C230.519 8.78522 231.22 8.20879 231.714 7.46922C232.207 6.72965 232.47 5.86015 232.47 4.97067C232.47 3.77792 231.997 2.63403 231.155 1.79063C230.313 0.947224 229.171 0.473405 227.98 0.473404Z" fill="#232323"/>
<path d="M210.394 111.156C206.219 111.156 202.216 109.495 199.264 106.538C196.312 103.581 194.653 99.5711 194.653 95.3896C194.653 91.2081 196.312 87.1979 199.264 84.2411C202.216 81.2844 206.219 79.6233 210.394 79.6233V111.156Z" fill="#078080"/>
<path d="M210.394 79.6233C214.569 79.6233 218.572 81.2844 221.524 84.2411C224.476 87.1979 226.135 91.2081 226.135 95.3896C226.135 99.5711 224.476 103.581 221.524 106.538C218.572 109.495 214.569 111.156 210.394 111.156V79.6233Z" fill="#F8F5F2"/>
<path d="M264.983 141.948H156.278C155.213 141.947 154.192 141.523 153.439 140.769C152.685 140.014 152.262 138.991 152.261 137.925V51.9077C152.262 50.8408 152.685 49.8181 153.439 49.0637C154.192 48.3093 155.213 47.885 156.278 47.8838H264.983C266.048 47.885 267.069 48.3093 267.822 49.0637C268.575 49.8181 268.999 50.8408 269 51.9077V137.925C268.999 138.991 268.575 140.014 267.822 140.769C267.069 141.523 266.048 141.947 264.983 141.948ZM156.278 48.3572C155.338 48.3583 154.437 48.7327 153.773 49.3983C153.108 50.0639 152.734 50.9664 152.733 51.9077V137.925C152.734 138.866 153.108 139.768 153.773 140.434C154.437 141.1 155.338 141.474 156.278 141.475H264.983C265.922 141.474 266.823 141.1 267.488 140.434C268.152 139.768 268.526 138.866 268.527 137.925V51.9077C268.526 50.9664 268.152 50.0639 267.488 49.3983C266.823 48.7327 265.922 48.3583 264.983 48.3572H156.278Z" fill="#F45D48"/>
<path d="M203.569 25.6199H203.096V86.1229H203.569V25.6199Z" fill="#232323"/>
<path d="M203.474 25.8073C202.493 25.8073 201.533 25.5158 200.717 24.9696C199.901 24.4234 199.265 23.6471 198.889 22.7388C198.514 21.8306 198.415 20.8311 198.607 19.8669C198.798 18.9027 199.271 18.017 199.965 17.3218C200.659 16.6267 201.543 16.1533 202.506 15.9615C203.469 15.7697 204.467 15.8681 205.373 16.2443C206.28 16.6206 207.055 17.2577 207.6 18.0751C208.146 18.8925 208.437 19.8535 208.437 20.8366C208.437 22.1549 207.914 23.4193 206.983 24.3514C206.053 25.2836 204.79 25.8073 203.474 25.8073ZM203.474 16.3394C202.586 16.3394 201.718 16.6031 200.98 17.0973C200.241 17.5915 199.666 18.2938 199.326 19.1156C198.986 19.9374 198.897 20.8416 199.07 21.714C199.244 22.5864 199.671 23.3877 200.299 24.0167C200.927 24.6456 201.727 25.074 202.598 25.2475C203.469 25.421 204.372 25.332 205.192 24.9916C206.013 24.6512 206.714 24.0748 207.207 23.3352C207.701 22.5956 207.964 21.7261 207.964 20.8366C207.964 19.6439 207.491 18.5 206.649 17.6566C205.807 16.8132 204.665 16.3394 203.474 16.3394Z" fill="#232323"/>
<path d="M172.654 129.138C174.372 129.138 175.765 127.743 175.765 126.022C175.765 124.302 174.372 122.906 172.654 122.906C170.936 122.906 169.543 124.302 169.543 126.022C169.543 127.743 170.936 129.138 172.654 129.138Z" fill="#F45D48"/>
<path d="M249.044 129.138C250.762 129.138 252.155 127.743 252.155 126.022C252.155 124.302 250.762 122.906 249.044 122.906C247.326 122.906 245.933 124.302 245.933 126.022C245.933 127.743 247.326 129.138 249.044 129.138Z" fill="#F8F5F2"/>
<path d="M172.654 67.166C174.372 67.166 175.765 65.7709 175.765 64.05C175.765 62.3291 174.372 60.9341 172.654 60.9341C170.936 60.9341 169.543 62.3291 169.543 64.05C169.543 65.7709 170.936 67.166 172.654 67.166Z" fill="#F45D48"/>
<path d="M249.044 67.166C250.762 67.166 252.155 65.7709 252.155 64.05C252.155 62.3291 250.762 60.9341 249.044 60.9341C247.326 60.9341 245.933 62.3291 245.933 64.05C245.933 65.7709 247.326 67.166 249.044 67.166Z" fill="#F8F5F2"/>
<path d="M178.206 41.4223C180.816 41.4223 182.932 39.3028 182.932 36.6883C182.932 34.0738 180.816 31.9543 178.206 31.9543C175.596 31.9543 173.48 34.0738 173.48 36.6883C173.48 39.3028 175.596 41.4223 178.206 41.4223Z" fill="#F8F5F2"/>
<path d="M226.563 11.3615C229.173 11.3615 231.289 9.24203 231.289 6.62753C231.289 4.01303 229.173 1.89355 226.563 1.89355C223.952 1.89355 221.836 4.01303 221.836 6.62753C221.836 9.24203 223.952 11.3615 226.563 11.3615Z" fill="#F45D48"/>
<path d="M202.056 27.2275C204.667 27.2275 206.783 25.108 206.783 22.4935C206.783 19.879 204.667 17.7595 202.056 17.7595C199.446 17.7595 197.33 19.879 197.33 22.4935C197.33 25.108 199.446 27.2275 202.056 27.2275Z" fill="#078080"/>
</g>
<defs>
<clipPath id="clip0">
<rect width="269" height="215" fill="white"/>
</clipPath>
</defs>
</svg>
