<svg width="267" height="188" viewBox="0 0 267 188" fill="none" xmlns="http://www.w3.org/2000/svg">
<g clip-path="url(#clip0)">
<path d="M72.2969 171.413H7.15763C7.15763 171.413 5.83725 151.681 13.6496 151.457C21.4619 151.233 20.5816 160.202 30.3745 147.869C40.1674 135.537 52.0509 136.21 53.5913 143.497C55.1318 150.784 50.6205 156.614 58.8729 154.82C67.1253 153.026 79.0089 157.735 72.2969 171.413Z" fill="#078080"/>
<path d="M38.6276 171.417L38.4078 171.408C38.9205 158.417 41.5908 150.07 43.7406 145.356C46.0749 140.236 48.3242 138.164 48.3466 138.144L48.4929 138.311C48.4707 138.332 46.2476 140.383 43.9321 145.468C41.7942 150.162 39.1385 158.475 38.6276 171.417Z" fill="#F8F5F2"/>
<path d="M62.2032 171.444L61.9919 171.382C64.5358 162.485 70.5262 156.868 70.5865 156.812L70.7343 156.978C70.6746 157.034 64.729 162.611 62.2032 171.444Z" fill="#F8F5F2"/>
<path d="M17.4173 171.428L17.1993 171.397C18.0624 165.055 16.5034 160.134 15.0435 157.123C13.4628 153.863 11.6593 152.083 11.6412 152.065L11.7935 151.903C11.8118 151.921 13.6432 153.729 15.2408 157.024C16.7143 160.063 18.2881 165.03 17.4173 171.428Z" fill="#F8F5F2"/>
<path d="M81.1375 171.713H0.131729L0.113042 171.433C0.0664694 170.738 -0.966889 154.332 4.25035 148.478C5.41667 147.169 6.8216 146.482 8.42604 146.436C11.8268 146.338 13.964 147.636 15.6877 148.677C18.9367 150.641 21.0831 151.939 28.8869 142.111C37.341 131.465 46.4625 129.174 51.7062 130.448C55.0942 131.271 57.4293 133.597 58.1128 136.83C58.7599 139.891 58.5538 142.768 58.3882 145.079C58.211 147.552 58.0709 149.505 59.0678 150.39C59.8999 151.129 61.5609 151.196 64.2945 150.602C69.8549 149.393 77.6133 150.427 81.5076 155.554C83.6028 158.312 85.2532 163.326 81.2188 171.547L81.1375 171.713ZM0.684559 171.113H80.7729C83.7793 164.898 83.8732 159.648 81.042 155.921C77.4696 151.218 69.9748 149.98 64.4173 151.188C61.4473 151.834 59.6776 151.727 58.681 150.843C57.4622 149.761 57.6117 147.675 57.8009 145.035C57.9639 142.762 58.1665 139.933 57.5373 136.956C56.9035 133.958 54.7284 131.799 51.5697 131.031C46.4933 129.797 37.6266 132.059 29.3446 142.488C21.2209 152.719 18.7737 151.24 15.3875 149.193C13.6424 148.139 11.6611 146.943 8.44273 147.036C7.00445 147.077 5.74067 147.698 4.68619 148.881C-0.00281526 154.142 0.569707 168.895 0.684559 171.113Z" fill="#F45D48"/>
<path d="M255.607 171.413H190.468C190.468 171.413 189.148 151.681 196.96 151.457C204.773 151.233 203.892 160.202 213.685 147.869C223.478 135.537 235.362 136.21 236.902 143.497C238.442 150.784 233.931 156.614 242.183 154.82C250.436 153.026 262.319 157.735 255.607 171.413Z" fill="#078080"/>
<path d="M221.938 171.417L221.718 171.408C222.231 158.417 224.901 150.07 227.051 145.356C229.386 140.236 231.635 138.164 231.657 138.144L231.804 138.311C231.781 138.332 229.558 140.383 227.243 145.468C225.105 150.162 222.449 158.475 221.938 171.417Z" fill="#F8F5F2"/>
<path d="M245.514 171.444L245.303 171.382C247.846 162.485 253.837 156.868 253.897 156.812L254.045 156.978C253.985 157.034 248.04 162.611 245.514 171.444Z" fill="#F8F5F2"/>
<path d="M200.728 171.428L200.51 171.397C201.373 165.055 199.814 160.134 198.354 157.123C196.774 153.863 194.97 152.083 194.952 152.065L195.104 151.903C195.122 151.921 196.954 153.729 198.551 157.024C200.025 160.063 201.599 165.03 200.728 171.428Z" fill="#F8F5F2"/>
<path d="M264.448 171.713H183.442L183.424 171.433C183.377 170.738 182.344 154.332 187.561 148.478C188.727 147.169 190.132 146.482 191.737 146.436C195.137 146.338 197.275 147.636 198.998 148.677C202.247 150.641 204.394 151.939 212.198 142.111C220.652 131.465 229.773 129.174 235.017 130.448C238.405 131.271 240.74 133.597 241.423 136.83C242.071 139.891 241.864 142.768 241.699 145.079C241.522 147.552 241.382 149.505 242.378 150.39C243.211 151.129 244.871 151.196 247.605 150.602C253.166 149.393 260.924 150.427 264.818 155.554C266.913 158.312 268.564 163.326 264.529 171.547L264.448 171.713ZM183.995 171.113H264.084C267.09 164.898 267.184 159.648 264.353 155.921C260.78 151.218 253.285 149.98 247.728 151.188C244.758 151.834 242.988 151.727 241.992 150.843C240.773 149.761 240.922 147.675 241.111 145.035C241.275 142.762 241.477 139.933 240.848 136.956C240.214 133.958 238.039 131.799 234.88 131.031C229.804 129.797 220.937 132.059 212.655 142.488C204.532 152.719 202.084 151.24 198.698 149.193C196.953 148.139 194.972 146.943 191.753 147.036C190.315 147.077 189.051 147.698 187.997 148.881C183.308 154.142 183.88 168.895 183.995 171.113V171.113Z" fill="#F45D48"/>
<path d="M125.54 115.38C119.831 115.38 114.825 121.455 112.064 130.528C111.869 131.165 111.686 131.819 111.515 132.483C110.352 137.134 109.775 141.917 109.796 146.716C109.796 163.996 116.858 178.053 125.54 178.053C134.222 178.053 141.284 163.996 141.284 146.716C141.284 129.436 134.222 115.38 125.54 115.38ZM125.54 177.555C117.129 177.555 110.285 163.72 110.285 146.716C110.262 141.896 110.847 137.094 112.025 132.426C112.186 131.801 112.358 131.19 112.542 130.59C115.23 121.769 120.051 115.877 125.54 115.877C133.951 115.877 140.796 129.712 140.796 146.716C140.796 163.72 133.951 177.555 125.54 177.555Z" fill="#232323"/>
<path d="M129.323 164.834C126.312 164.834 123.953 156.876 123.953 146.716C123.953 136.556 126.312 128.598 129.323 128.598C132.335 128.598 134.693 136.556 134.693 146.716C134.693 156.876 132.335 164.834 129.323 164.834ZM129.323 129.095C126.677 129.095 124.442 137.165 124.442 146.716C124.442 156.268 126.677 164.337 129.323 164.337C131.97 164.337 134.205 156.268 134.205 146.716C134.205 137.165 131.97 129.095 129.323 129.095Z" fill="#232323"/>
<path d="M129.934 150.877C131.079 150.877 132.008 149.014 132.008 146.716C132.008 144.418 131.079 142.555 129.934 142.555C128.788 142.555 127.859 144.418 127.859 146.716C127.859 149.014 128.788 150.877 129.934 150.877Z" fill="#F45D48"/>
<path d="M125.418 90.2606L158.858 90.1362V103.559L125.418 104.934V90.2606Z" fill="#232323"/>
<path d="M96.8591 135.787L96.3719 135.76L97.8491 108.416H128.103V108.913H98.3112L96.8591 135.787Z" fill="#232323"/>
<path d="M96.809 180.037L79.7228 177.053L79.8241 176.566L96.9103 179.55L96.809 180.037Z" fill="#232323"/>
<path d="M100.297 185.763L100.257 186.259L121.004 188L121.044 187.504L100.297 185.763Z" fill="#232323"/>
<path d="M148.423 135.813C148.24 136.412 148.068 137.024 147.906 137.648L147.396 137.706L131.52 139.504L95.151 135.773L132.985 133.784L147.945 135.751L148.423 135.813Z" fill="#232323"/>
<path d="M140.107 46.8146C140.107 46.8146 134.82 44.8908 131.422 52.5858C128.023 60.2808 122.737 68.7452 122.737 68.7452L125.758 69.5147C125.758 69.5147 126.513 64.1282 128.401 63.3587L127.646 70.2842C127.646 70.2842 150.302 78.3639 160.498 69.5147L160.12 66.8215C160.12 66.8215 161.631 67.2062 161.631 69.5147L162.764 68.3605C162.764 68.3605 161.631 66.052 158.232 62.974C156.002 60.9537 155.235 57.1102 154.972 54.7072C154.774 52.7007 153.986 50.8017 152.711 49.2594C150.453 46.5925 146.338 43.758 140.107 46.8146Z" fill="#232323"/>
<path d="M110.895 54.0745L108.698 30.6964C108.698 30.6964 104.304 18.0126 110.895 19.0074C117.485 20.0022 113.58 29.7016 113.58 29.7016L117.241 54.0745H110.895Z" fill="#A0616A"/>
<path d="M93.8084 160.27L91.3676 168.726L96.0052 172.705L99.4225 162.011L93.8084 160.27Z" fill="#A0616A"/>
<path d="M112.603 166.488L110.162 175.441L118.706 180.913C118.706 180.913 118.95 170.716 120.17 168.726L112.603 166.488Z" fill="#A0616A"/>
<path d="M123.099 118.737L121.879 121.224C121.879 121.224 107.966 114.758 104.304 123.711C100.643 132.664 92.5881 161.017 92.5881 161.017L99.6666 164.001L112.603 133.908L142.138 133.162L143.359 116.499L123.099 118.737Z" fill="#232323"/>
<path d="M133.351 122.965C133.351 122.965 113.336 118.737 111.871 128.934C110.407 139.131 112.603 158.529 112.847 159.027C113.091 159.524 111.871 168.726 111.871 168.726L120.658 169.97C120.658 169.97 126.272 142.861 123.831 135.898L140.346 134.857C146.047 134.497 150.704 129.909 151.032 124.099C151.158 121.875 150.611 119.856 148.728 118.737C142.87 115.255 132.13 115.255 132.13 115.255L133.351 122.965Z" fill="#232323"/>
<path d="M94.5408 168.478C94.5408 168.478 92.8321 164.747 90.3913 166.488C87.9504 168.229 82.3363 171.959 82.3363 171.959C82.3363 171.959 73.6519 175.075 81.36 177.182C88.2163 179.056 89.9031 178.674 89.9031 178.674C89.9031 178.674 95.5171 179.669 96.2494 179.172C96.9817 178.674 97.4698 170.716 97.4698 170.716C97.4698 170.716 94.0526 169.97 94.5408 168.478Z" fill="#232323"/>
<path d="M113.58 176.187C113.58 176.187 111.139 172.706 109.43 174.198C107.722 175.69 101.619 179.918 101.619 179.918C101.619 179.918 91.3676 182.902 100.399 185.638C109.43 188.374 119.438 187.876 119.682 186.882C119.926 185.887 119.194 178.674 119.194 178.674C119.194 178.674 114.068 178.426 113.58 176.187Z" fill="#232323"/>
<path d="M142.87 71.4836C147.723 71.4836 151.658 67.4751 151.658 62.5303C151.658 57.5856 147.723 53.577 142.87 53.577C138.017 53.577 134.083 57.5856 134.083 62.5303C134.083 67.4751 138.017 71.4836 142.87 71.4836Z" fill="#A0616A"/>
<path d="M136.524 66.5096C136.524 66.5096 136.036 76.7064 133.595 77.4525C131.154 78.1986 124.32 86.4058 127.493 88.8928C130.666 91.3798 148.973 89.6389 148.973 89.6389L147.264 76.7064C147.264 76.7064 143.359 73.9707 146.532 69.2453L136.524 66.5096Z" fill="#A0616A"/>
<path d="M136.28 83.4213L134.571 75.2142L128.957 72.9758L124.32 83.9188C124.32 83.9188 119.072 119.359 120.536 119.856C121.358 120.152 122.229 120.279 123.099 120.229C123.099 120.229 130.91 117.742 133.351 118.986C135.792 120.229 148.484 121.224 148.484 121.224C148.484 121.224 157.272 116.499 156.783 112.271C156.295 108.043 156.783 84.4162 156.783 84.4162L155.685 73.8463L146.054 75.3814L136.28 83.4213Z" fill="#F45D48"/>
<path d="M129.201 74.2193L128.957 72.7271L122.123 64.2712L118.217 50.0952L108.698 53.8257L115.532 70.9862L125.296 83.67L129.201 74.2193Z" fill="#F45D48"/>
<path d="M131.326 63.6011C131.326 63.6011 134.347 59.3689 136.99 58.5994C139.634 57.8299 140.011 53.9824 140.011 53.9824C140.011 53.9824 146.808 61.6773 150.962 62.0621C155.116 62.4468 151.34 52.8281 151.34 52.8281L143.787 50.9044L136.613 51.6739L130.949 55.5214L131.326 63.6011Z" fill="#232323"/>
<path d="M159.591 121.108L159.354 110.903H136.64L135.914 138.267L135.426 138.253L136.164 110.405H159.826L159.834 110.646L160.078 121.091L159.591 121.108Z" fill="#232323"/>
<path d="M159.102 107.172H158.614V88.1886L166.493 90.5192L166.357 90.997L159.102 88.8509V107.172Z" fill="#232323"/>
<path d="M161.421 120.602C155.712 120.602 150.706 126.678 147.945 135.751C147.75 136.388 147.567 137.042 147.396 137.706C146.233 142.357 145.656 147.139 145.677 151.939C145.677 169.219 152.739 183.275 161.421 183.275C170.103 183.275 177.165 169.219 177.165 151.939C177.165 134.659 170.103 120.602 161.421 120.602ZM161.421 182.778C153.01 182.778 146.166 168.943 146.166 151.939C146.143 147.119 146.728 142.316 147.906 137.648C148.067 137.024 148.24 136.412 148.423 135.813C151.111 126.992 155.932 121.1 161.421 121.1C169.832 121.1 176.677 134.935 176.677 151.939C176.677 168.943 169.832 182.778 161.421 182.778Z" fill="#232323"/>
<path d="M165.204 170.057C162.193 170.057 159.835 162.098 159.835 151.939C159.835 141.779 162.193 133.821 165.204 133.821C168.216 133.821 170.574 141.779 170.574 151.939C170.574 162.098 168.216 170.057 165.204 170.057ZM165.204 134.318C162.558 134.318 160.323 142.387 160.323 151.939C160.323 161.49 162.558 169.56 165.204 169.56C167.851 169.56 170.086 161.49 170.086 151.939C170.086 142.387 167.851 134.318 165.204 134.318Z" fill="#232323"/>
<path d="M165.815 156.1C166.961 156.1 167.889 154.237 167.889 151.939C167.889 149.641 166.961 147.778 165.815 147.778C164.669 147.778 163.74 149.641 163.74 151.939C163.74 154.237 164.669 156.1 165.815 156.1Z" fill="#F45D48"/>
<path d="M162.519 87.7736L167.645 89.7632L166.669 92.4989L162.519 90.758V87.7736Z" fill="#232323"/>
<path d="M142.26 109.162V113.141H156.803V109.426L142.26 109.162Z" fill="#232323"/>
<path d="M104.914 107.172V111.152H119.458V107.437L104.914 107.172Z" fill="#232323"/>
<path d="M154.624 22.959H55.1271V0H154.624V22.959ZM55.7124 22.3626H154.038V0.59634H55.7124V22.3626Z" fill="#232323"/>
<path d="M74.1485 7.75238H63.0283V19.0828H74.1485V7.75238Z" fill="#078080"/>
<path d="M72.6854 17.5919H60.9799V5.66519H72.6854V17.5919ZM61.5652 16.9956H72.1001V6.26153H61.5652L61.5652 16.9956Z" fill="#232323"/>
<path d="M143.211 8.05054H91.1215V8.64687H143.211V8.05054Z" fill="#232323"/>
<path d="M143.211 12.2249H91.1215V12.8212H143.211V12.2249Z" fill="#232323"/>
<path d="M143.211 16.3993H91.1215V16.9956H143.211V16.3993Z" fill="#232323"/>
<path d="M131.52 97.5172H131.402V94.2054C131.402 93.9537 131.353 93.7045 131.258 93.4719C131.164 93.2394 131.025 93.0281 130.851 92.8501C130.676 92.6721 130.469 92.5309 130.24 92.4346C130.012 92.3383 129.767 92.2887 129.52 92.2887H122.634C122.387 92.2887 122.143 92.3383 121.914 92.4346C121.686 92.5309 121.479 92.6721 121.304 92.8501C121.129 93.0281 120.991 93.2394 120.896 93.4719C120.802 93.7045 120.753 93.9537 120.753 94.2054V112.374C120.753 112.626 120.802 112.875 120.896 113.107C120.991 113.34 121.129 113.551 121.304 113.729C121.479 113.907 121.686 114.048 121.914 114.145C122.143 114.241 122.387 114.291 122.634 114.291H129.52C129.767 114.291 130.012 114.241 130.24 114.145C130.469 114.048 130.676 113.907 130.851 113.729C131.025 113.551 131.164 113.34 131.258 113.107C131.353 112.875 131.402 112.626 131.402 112.374V99.8745H131.52V97.5172Z" fill="#232323"/>
<path d="M126.137 99.1066C126.773 99.1066 127.289 98.5809 127.289 97.9325C127.289 97.2841 126.773 96.7584 126.137 96.7584C125.5 96.7584 124.984 97.2841 124.984 97.9325C124.984 98.5809 125.5 99.1066 126.137 99.1066Z" fill="#078080"/>
<path d="M155.338 109.402L132.293 108.96C132.293 108.96 119.425 111.961 121.146 105.404C122.867 98.8459 131.879 103.905 131.879 103.905L156.062 102.978L155.338 109.402Z" fill="#A0616A"/>
<path d="M153 75.5872L155.197 73.8463C155.197 73.8463 158.858 71.8567 159.59 78.8204C160.323 85.784 165.693 108.913 160.323 109.162C154.953 109.411 141.284 109.659 141.284 109.659L142.748 101.95L153.976 101.204L153 75.5872Z" fill="#F45D48"/>
<path opacity="0.15" d="M153.732 86.2813L153 100.457L142.26 102.696L152.024 98.7165L153.732 86.2813Z" fill="#232323"/>
</g>
<defs>
<clipPath id="clip0">
<rect width="267" height="188" fill="white"/>
</clipPath>
</defs>
</svg>
