<svg width="112" height="120" viewBox="0 0 112 120" fill="none" xmlns="http://www.w3.org/2000/svg">
<g clip-path="url(#clip0)">
<path d="M24.2435 48.5993C18.9637 43.4144 16.7337 38.0054 17.9642 33.3686C19.5434 27.4183 26.5589 23.3041 37.2118 22.0811L37.2511 22.4224C26.7465 23.6283 19.8381 27.6501 18.2972 33.4565C17.0996 37.969 19.2972 43.2599 24.4851 48.3545L24.2435 48.5993Z" fill="#F8F5F2"/>
<path d="M75.1849 67.0038C68.5954 67.0038 61.4347 66.027 54.322 64.1486C45.5263 61.8258 37.4616 58.3197 30.9998 54.0093L31.1911 53.7239C37.6218 58.0134 45.6508 61.5034 54.4101 63.8165C62.3258 65.9071 70.3008 66.8757 77.4701 66.6201L77.4825 66.9632C76.7254 66.9904 75.9595 67.0039 75.1849 67.0038Z" fill="#F8F5F2"/>
<path d="M90.3022 64.8437L90.1919 64.5183C96.0853 62.5306 99.7714 59.3286 100.852 55.2582C102.225 50.0838 99.2416 44.0792 92.4513 38.3505C85.6264 32.5928 75.7847 27.8153 64.7388 24.8983L64.8269 24.5662C75.9211 27.496 85.8107 32.2982 92.6736 38.0883C99.5712 43.9074 102.594 50.0363 101.185 55.3461C100.073 59.5332 96.3103 62.8174 90.3022 64.8437Z" fill="#F8F5F2"/>
<path d="M36.1865 67.1472C23.2385 61.4187 13.261 53.9867 8.09222 46.2201L8.37907 46.03C13.5121 53.7429 23.4372 61.1309 36.3261 66.8332L36.1865 67.1472Z" fill="#F8F5F2"/>
<path d="M81.7109 77.0714C80.3754 77.0714 79.017 77.0417 77.6359 76.9822L77.6507 76.639C87.9578 77.0842 97.0519 75.8538 103.952 73.0801L104.08 73.3988C98.0616 75.818 90.3901 77.0714 81.7109 77.0714Z" fill="#F8F5F2"/>
<path d="M74.1983 22.3889C72.0582 21.6939 69.857 21.0467 67.6557 20.4654C54.9881 17.1201 42.5358 15.9323 31.6444 17.0312L31.6098 16.6894C42.5418 15.5869 55.0367 16.7775 67.7438 20.1333C69.9513 20.7163 72.1588 21.3653 74.3049 22.0624L74.1983 22.3889Z" fill="#F8F5F2"/>
<path d="M16.1513 49.1144C10.8715 43.9296 8.64156 38.5205 9.87209 33.8837C11.4513 27.9334 18.4667 23.8192 29.1196 22.5962L29.1589 22.9375C18.6543 24.1435 11.7459 28.1653 10.205 33.9716C9.00744 38.4841 11.205 43.775 16.393 48.8697L16.1513 49.1144Z" fill="#F8F5F2"/>
<path d="M67.0928 67.5189C60.5032 67.5189 53.3425 66.5421 46.2299 64.6637C37.4342 62.3409 29.3694 58.8349 22.9076 54.5245L23.0989 54.239C29.5297 58.5285 37.5587 62.0185 46.318 64.3317C54.2336 66.4222 62.2086 67.3908 69.3779 67.1352L69.3904 67.4783C68.6333 67.5055 67.8674 67.5191 67.0928 67.5189Z" fill="#F8F5F2"/>
<path d="M82.2099 65.3588L82.0996 65.0334C87.9931 63.0457 91.6792 59.8437 92.7595 55.7733C94.1327 50.5989 91.1494 44.5943 84.3591 38.8657C77.5342 33.1079 67.6925 28.3304 56.6465 25.4134L56.7347 25.0813C67.8288 28.0111 77.7184 32.8134 84.5814 38.6034C91.479 44.4225 94.5016 50.5515 93.0924 55.8612C91.9812 60.0483 88.2181 63.3325 82.2099 65.3588Z" fill="#F8F5F2"/>
<path d="M28.0943 67.6626C15.1462 61.9341 5.16876 54.5021 0 46.7354L0.286846 46.5454C5.41989 54.2583 15.345 61.6463 28.2339 67.3486L28.0943 67.6626Z" fill="#F8F5F2"/>
<path d="M73.6187 77.5866C72.2832 77.5866 70.9249 77.5568 69.5437 77.4973L69.5585 77.1542C79.8656 77.5993 88.9598 76.3689 95.8595 73.5952L95.9883 73.9139C89.9694 76.3332 82.2979 77.5866 73.6187 77.5866Z" fill="#F8F5F2"/>
<path d="M66.1061 22.9043C63.966 22.2093 61.7647 21.5621 59.5635 20.9808C46.8959 17.6355 34.4436 16.4477 23.5522 17.5466L23.5176 17.2047C34.4496 16.1023 46.9445 17.2929 59.6516 20.6487C61.8591 21.2317 64.0666 21.8807 66.2127 22.5778L66.1061 22.9043Z" fill="#F8F5F2"/>
<path d="M68.2474 53.8237L71.1744 53.4802L72.2075 62.4113L74.845 74.7444C75.2118 74.9227 75.5111 75.2143 75.6983 75.576C75.8856 75.9377 75.9507 76.35 75.884 76.7516C75.8173 77.1531 75.6224 77.5225 75.3283 77.8046C75.0342 78.0868 74.6566 78.2666 74.2517 78.3174C73.8469 78.3681 73.4364 78.2871 73.0814 78.0864C72.7265 77.8856 72.446 77.5759 72.2818 77.2033C72.1175 76.8306 72.0783 76.4151 72.17 76.0184C72.2616 75.6218 72.4793 75.2653 72.7904 75.002L70.1414 67.7356L68.2474 53.8237Z" fill="#FFB6B6"/>
<path d="M63.9954 117.494H66.4069L67.5543 108.216H63.9951L63.9954 117.494Z" fill="#FFB6B6"/>
<path d="M63.3804 119.826H71.1562V119.728C71.1561 118.927 70.8373 118.159 70.2697 117.593C69.7022 117.027 68.9325 116.709 68.1299 116.708H63.3804V119.826Z" fill="#232323"/>
<path d="M45.4883 116.182L47.8561 116.638L50.7466 107.745L47.2514 107.072L45.4883 116.182Z" fill="#FFB6B6"/>
<path d="M44.4419 118.355L52.0766 119.826L52.0952 119.73C52.2474 118.944 52.0803 118.129 51.6306 117.466C51.181 116.803 50.4856 116.345 49.6975 116.193L45.0345 115.295L44.4419 118.355Z" fill="#232323"/>
<path d="M67.7767 39.1883L66.3756 41.87L55.8813 39.5611L57.031 34.3617C57.9409 30.2462 61.5888 27.2741 65.7144 28.1818C69.8401 29.0895 71.765 33.1119 70.855 37.2274L69.1639 42.483L67.4529 42.1065L67.7767 39.1883Z" fill="#232323"/>
<path d="M71.5188 68.7664C71.5188 68.7664 72.5518 73.9189 71.1744 81.4759C69.797 89.033 69.4527 92.2963 69.4527 92.2963C69.4527 92.2963 70.4857 93.4985 69.797 94.1855C69.1083 94.8725 69.797 96.2465 69.797 96.2465L68.2475 112.906L62.91 112.048L63.5987 96.4183C63.5987 96.4183 62.91 95.0443 63.2544 94.7008C63.5987 94.3573 62.91 92.2963 62.91 92.2963L62.0492 75.9799L56.7118 93.842C56.7118 93.842 57.2283 94.529 56.7118 95.0443C56.1952 95.5595 55.1622 98.1358 55.1622 98.1358L51.7187 110.158L46.2091 109.128L49.3083 95.3878C49.3083 95.3878 48.9639 94.529 49.4804 94.0138C49.6311 93.8561 49.7411 93.6644 49.8011 93.455C49.8611 93.2456 49.8692 93.0248 49.8248 92.8115C49.8248 92.8115 49.3083 92.2963 49.9969 91.6093C50.6856 90.9223 51.03 88.1742 51.03 88.1742C51.03 88.1742 51.5465 69.7969 53.2683 68.7664C54.99 67.7358 71.5188 68.7664 71.5188 68.7664Z" fill="#232323"/>
<path d="M63.7335 40.3481C66.3961 40.3481 68.5544 38.195 68.5544 35.539C68.5544 32.8831 66.3961 30.73 63.7335 30.73C61.071 30.73 58.9127 32.8831 58.9127 35.539C58.9127 38.195 61.071 40.3481 63.7335 40.3481Z" fill="#FFB6B6"/>
<path d="M56.9395 41.6948C56.9395 41.6948 53.4403 41.2859 52.4072 42.3164L53.4403 63.0983C53.4403 63.0983 52.7516 63.6135 53.0959 64.8158C53.2959 65.6049 53.2959 66.4312 53.0959 67.2203C53.0959 67.2203 52.0629 68.4226 52.5794 68.9378C53.0959 69.4531 71.6908 69.1096 71.6908 69.1096C71.6908 69.1096 72.3795 67.9073 71.3464 67.2203C70.3134 66.5333 70.8299 64.644 70.8299 64.644C70.8299 64.644 71.1743 64.1288 70.3134 63.27C69.4525 62.4113 68.7638 55.3695 68.7638 55.3695L71.0021 46.7819C71.0021 46.7819 68.749 44.245 66.1738 44.0536L56.9395 41.6948Z" fill="#078080"/>
<path d="M68.3344 46.8999L71.0019 46.7817C71.0019 46.7817 72.5515 49.8733 72.7236 52.6213L73.6718 62.8728L67.5584 63.7851L68.3344 46.8999Z" fill="#078080"/>
<path d="M67.8639 35.7775L69.6545 33.4791C69.7601 32.9952 69.6694 32.4893 69.4022 32.0719C69.135 31.6546 68.713 31.3597 68.2285 31.2517L61.4635 29.7631C60.9784 29.6578 60.4712 29.7483 60.0527 30.0148C59.6343 30.2813 59.3387 30.7022 59.2304 31.1855L59.2266 31.2027L59.7111 33.978L59.7961 33.9629C63.9946 33.2162 65.1905 33.4789 67.7952 35.7193L67.8639 35.7775Z" fill="#232323"/>
<path d="M49.8461 72.5002L50.1689 58.9765L50.5133 49.3584L54.6455 49.8737L52.4263 72.8617C52.6597 73.154 52.8009 73.5087 52.8322 73.8811C52.8635 74.2534 52.7833 74.6267 52.602 74.9536C52.4206 75.2805 52.1461 75.5465 51.8132 75.7178C51.4803 75.8891 51.1039 75.9581 50.7317 75.916C50.3595 75.874 50.0082 75.7228 49.7221 75.4816C49.4361 75.2403 49.2282 74.9199 49.1247 74.5608C49.0212 74.2016 49.0268 73.82 49.1407 73.464C49.2547 73.1081 49.4719 72.7938 49.7649 72.561C49.7914 72.5399 49.8185 72.5196 49.8461 72.5V72.5002Z" fill="#FFB6B6"/>
<path d="M55.4215 42.6061L52.4072 42.3162C52.4072 42.3162 51.8907 42.3162 51.3742 44.0337C50.8576 45.7512 48.0181 63.9032 48.0181 63.9032L54.3013 64.4721L55.4215 42.6061Z" fill="#078080"/>
<path d="M26.8879 18.9841C31.2142 18.9841 34.7215 15.4855 34.7215 11.1698C34.7215 6.85407 31.2142 3.35547 26.8879 3.35547C22.5615 3.35547 19.0543 6.85407 19.0543 11.1698C19.0543 15.4855 22.5615 18.9841 26.8879 18.9841Z" fill="#F45D48"/>
<path d="M28.7253 15.9722C27.1419 15.9722 25.5941 15.5038 24.2775 14.6263C22.961 13.7488 21.9348 12.5015 21.3289 11.0423C20.723 9.58298 20.5644 7.97724 20.8733 6.42809C21.1822 4.87894 21.9447 3.45595 23.0643 2.33908C24.184 1.2222 25.6105 0.461599 27.1634 0.153454C28.7164 -0.154691 30.3261 0.0034609 31.789 0.607911C33.2518 1.21236 34.5022 2.23596 35.3818 3.54927C36.2615 4.86258 36.7311 6.40661 36.7311 7.98611C36.7287 10.1034 35.8844 12.1333 34.3836 13.6305C32.8827 15.1276 30.8478 15.9698 28.7253 15.9722ZM28.7253 0.343505C27.21 0.343504 25.7287 0.791733 24.4688 1.63151C23.2089 2.47129 22.2269 3.6649 21.647 5.0614C21.0672 6.4579 20.9154 7.99457 21.211 9.47709C21.5067 10.9596 22.2363 12.3214 23.3078 13.3902C24.3793 14.4591 25.7444 15.187 27.2306 15.4818C28.7168 15.7767 30.2572 15.6254 31.6572 15.0469C33.0571 14.4685 34.2537 13.4889 35.0955 12.2321C35.9374 10.9753 36.3867 9.49766 36.3867 7.9861C36.3844 5.95986 35.5765 4.01728 34.1402 2.58451C32.7039 1.15174 30.7565 0.345805 28.7253 0.343505Z" fill="#232323"/>
<path d="M98.9712 44.4257C101.942 44.4257 104.351 42.0232 104.351 39.0596C104.351 36.0959 101.942 33.6934 98.9712 33.6934C96.0003 33.6934 93.5918 36.0959 93.5918 39.0596C93.5918 42.0232 96.0003 44.4257 98.9712 44.4257Z" fill="#F45D48"/>
<path d="M100.233 42.4114C99.135 42.4114 98.0617 42.0866 97.1487 41.4781C96.2357 40.8696 95.5242 40.0046 95.104 38.9927C94.6838 37.9808 94.5739 36.8673 94.7881 35.793C95.0023 34.7188 95.531 33.732 96.3074 32.9575C97.0838 32.183 98.073 31.6555 99.15 31.4419C100.227 31.2282 101.343 31.3378 102.358 31.757C103.372 32.1762 104.239 32.886 104.849 33.7967C105.459 34.7074 105.785 35.7781 105.785 36.8734C105.783 38.3417 105.198 39.7493 104.157 40.7875C103.116 41.8257 101.705 42.4097 100.233 42.4114ZM100.233 31.679C99.2031 31.679 98.1964 31.9836 97.34 32.5544C96.4837 33.1252 95.8163 33.9364 95.4221 34.8856C95.028 35.8347 94.9249 36.8792 95.1258 37.8868C95.3267 38.8944 95.8227 39.82 96.5509 40.5465C97.2792 41.2729 98.207 41.7676 99.2171 41.9681C100.227 42.1685 101.274 42.0656 102.226 41.6725C103.177 41.2793 103.991 40.6135 104.563 39.7593C105.135 38.9051 105.44 37.9008 105.44 36.8734C105.439 35.4962 104.89 34.1759 103.913 33.2021C102.937 32.2283 101.614 31.6805 100.233 31.679Z" fill="#232323"/>
<path d="M111.828 120H8.523C8.47734 120 8.43355 119.982 8.40126 119.95C8.36897 119.917 8.35083 119.874 8.35083 119.828C8.35083 119.783 8.36897 119.739 8.40126 119.707C8.43355 119.675 8.47734 119.656 8.523 119.656H111.828C111.873 119.656 111.917 119.675 111.95 119.707C111.982 119.739 112 119.783 112 119.828C112 119.874 111.982 119.917 111.95 119.95C111.917 119.982 111.873 120 111.828 120Z" fill="#F8F5F2"/>
<path d="M104.63 113.014C104.087 113.205 103.504 113.253 102.937 113.153C102.369 113.053 101.838 112.81 101.392 112.445C100.258 111.496 99.9027 109.931 99.6134 108.483L98.7577 104.199L100.549 105.429C101.838 106.314 103.155 107.228 104.047 108.509C104.939 109.791 105.329 111.541 104.612 112.928" fill="#F45D48"/>
<path d="M104.354 118.499C104.579 116.861 104.811 115.201 104.653 113.544C104.512 112.073 104.062 110.637 103.146 109.459C102.66 108.834 102.069 108.3 101.398 107.878C101.224 107.768 101.063 108.045 101.237 108.154C102.397 108.886 103.294 109.966 103.799 111.238C104.357 112.654 104.446 114.197 104.35 115.7C104.292 116.609 104.168 117.513 104.044 118.415C104.035 118.456 104.041 118.499 104.061 118.535C104.082 118.571 104.116 118.599 104.156 118.611C104.197 118.622 104.241 118.617 104.278 118.596C104.315 118.575 104.342 118.54 104.353 118.5L104.354 118.499Z" fill="#F8F5F2"/>
<path d="M102.73 115.87C102.497 116.223 102.177 116.511 101.801 116.705C101.424 116.899 101.003 116.993 100.58 116.977C99.4912 116.926 98.5835 116.168 97.7665 115.449L95.35 113.32L96.9494 113.244C98.0995 113.189 99.2794 113.137 100.376 113.491C101.472 113.845 102.482 114.697 102.682 115.827" fill="#078080"/>
<path d="M104.991 119.442C103.906 117.526 102.646 115.396 100.396 114.716C99.7709 114.527 99.115 114.459 98.464 114.516C98.2588 114.534 98.3101 114.85 98.5156 114.832C99.6069 114.742 100.696 115.029 101.6 115.646C102.469 116.236 103.146 117.057 103.719 117.928C104.07 118.46 104.385 119.017 104.699 119.572C104.799 119.749 105.093 119.621 104.991 119.442Z" fill="#F8F5F2"/>
<path d="M19.4556 115.245C19.8468 115.408 20.2734 115.468 20.6944 115.418C21.1154 115.369 21.5166 115.212 21.8593 114.963C22.7329 114.313 23.0604 113.179 23.3347 112.127L24.1451 109.014L22.7764 109.843C21.7921 110.439 20.7852 111.055 20.0748 111.96C19.3643 112.865 19.0048 114.133 19.4731 115.183" fill="#078080"/>
<path d="M19.5837 119.467C19.4088 117.273 19.2596 114.805 20.7433 112.986C21.1562 112.48 21.6622 112.058 22.2339 111.743C22.4137 111.642 22.5483 111.933 22.368 112.033C21.4126 112.567 20.6708 113.413 20.2675 114.428C19.8775 115.403 19.7764 116.461 19.7894 117.502C19.7968 118.139 19.8482 118.776 19.8987 119.412C19.9153 119.615 19.6 119.672 19.5837 119.467Z" fill="#F8F5F2"/>
<path d="M16.3333 65.1577C20.6041 65.1577 24.0662 61.7041 24.0662 57.4439C24.0662 53.1836 20.6041 49.73 16.3333 49.73C12.0626 49.73 8.60046 53.1836 8.60046 57.4439C8.60046 61.7041 12.0626 65.1577 16.3333 65.1577Z" fill="#F8F5F2"/>
<path d="M18.1472 62.187C16.5838 62.187 15.0554 61.7245 13.7554 60.858C12.4555 59.9915 11.4423 58.7599 10.844 57.319C10.2457 55.8781 10.0891 54.2926 10.3942 52.7629C10.6992 51.2333 11.4521 49.8282 12.5576 48.7254C13.6632 47.6226 15.0717 46.8715 16.6051 46.5673C18.1386 46.263 19.728 46.4192 21.1725 47.016C22.6169 47.6129 23.8515 48.6236 24.7201 49.9204C25.5887 51.2172 26.0523 52.7418 26.0523 54.3014C26.0499 56.3921 25.2163 58.3964 23.7343 59.8748C22.2524 61.3531 20.2431 62.1846 18.1472 62.187ZM18.1472 46.7593C16.6519 46.7593 15.1901 47.2016 13.9468 48.0304C12.7034 48.8591 11.7344 50.037 11.1621 51.4152C10.5899 52.7933 10.4401 54.3098 10.7319 55.7728C11.0236 57.2358 11.7437 58.5797 12.8011 59.6344C13.8585 60.6892 15.2056 61.4075 16.6723 61.6985C18.1389 61.9896 19.6591 61.8402 21.0406 61.2694C22.4221 60.6985 23.603 59.7318 24.4337 58.4916C25.2645 57.2513 25.708 55.7931 25.708 54.3014C25.7057 52.3018 24.9084 50.3847 23.491 48.9708C22.0736 47.5569 20.1518 46.7615 18.1472 46.7593Z" fill="#232323"/>
<path d="M11.665 30.6306C12.4257 30.6306 13.0424 30.0154 13.0424 29.2566C13.0424 28.4977 12.4257 27.8826 11.665 27.8826C10.9043 27.8826 10.2876 28.4977 10.2876 29.2566C10.2876 30.0154 10.9043 30.6306 11.665 30.6306Z" fill="#F8F5F2"/>
<path d="M82.4288 23.7605C83.1896 23.7605 83.8062 23.1453 83.8062 22.3865C83.8062 21.6276 83.1896 21.0125 82.4288 21.0125C81.6681 21.0125 81.0515 21.6276 81.0515 22.3865C81.0515 23.1453 81.6681 23.7605 82.4288 23.7605Z" fill="#F45D48"/>
<path d="M91.554 72.5378C92.3148 72.5378 92.9314 71.9226 92.9314 71.1638C92.9314 70.405 92.3148 69.7898 91.554 69.7898C90.7933 69.7898 90.1766 70.405 90.1766 71.1638C90.1766 71.9226 90.7933 72.5378 91.554 72.5378Z" fill="#F8F5F2"/>
<path d="M29.8687 34.6324L29.921 34.2928L36.6483 35.3223C35.9627 34.6621 33.6924 32.6204 31.6333 32.4134C29.1735 32.1661 28.0912 33.2165 27.9482 34.6322C27.8052 36.0478 28.6555 37.2926 31.1153 37.54C33.2005 37.7496 35.8747 36.1586 36.6414 35.6688L29.8687 34.6324Z" fill="#F8F5F2"/>
<path d="M94.2429 16.4415L94.0353 16.1674L99.4665 12.0757C98.5141 12.1054 95.4639 12.3047 93.8792 13.6324C91.9861 15.2186 91.986 16.7249 92.9034 17.8144C93.8208 18.904 95.308 19.1641 97.2012 17.5779C98.806 16.2334 99.5278 13.2119 99.7106 12.3223L94.2429 16.4415Z" fill="#F8F5F2"/>
<path d="M81.4189 55.8302L81.2696 55.6329L85.177 52.6892C84.4917 52.7106 82.2973 52.854 81.1573 53.8092C79.7953 54.9504 79.7952 56.034 80.4552 56.8179C81.1152 57.6017 82.1852 57.7889 83.5472 56.6477C84.7018 55.6804 85.2211 53.5067 85.3526 52.8666L81.4189 55.8302Z" fill="#F8F5F2"/>
<path d="M50.4868 8.97428C51.5455 6.1349 54.0468 3.68148 57.0695 3.38965C55.2522 6.14041 54.4689 9.44374 54.8581 12.7152C55.0128 13.9763 55.3164 15.3629 54.6349 16.4362C54.2109 17.1041 53.4636 17.5153 52.6933 17.7008C51.9229 17.8863 51.1202 17.872 50.3278 17.8565L50.1504 17.9439C49.5932 14.9659 49.4282 11.8137 50.4868 8.97428Z" fill="#F8F5F2"/>
<path d="M57.0841 3.4515C55.0235 4.88755 53.4689 6.93477 52.641 9.30238C52.4538 9.80892 52.3477 10.3417 52.3267 10.8812C52.3233 11.4074 52.4612 11.9249 52.7262 12.3799C52.9646 12.8092 53.2583 13.2207 53.3881 13.7002C53.4508 13.9467 53.4606 14.2036 53.4168 14.4541C53.3731 14.7046 53.2767 14.9431 53.134 15.1538C52.7923 15.6882 52.2785 16.0682 51.7631 16.4224C51.1909 16.8156 50.5902 17.2151 50.2401 17.8329C50.1976 17.9077 50.0837 17.8377 50.126 17.7629C50.7352 16.6881 52.0138 16.2977 52.7959 15.3846C53.1609 14.9586 53.3993 14.4203 53.2865 13.853C53.1878 13.3569 52.8853 12.9323 52.6401 12.4998C52.3751 12.0597 52.2223 11.5616 52.1948 11.0489C52.1881 10.5101 52.2735 9.9741 52.4471 9.46384C52.8196 8.30888 53.3719 7.21952 54.0837 6.23569C54.8897 5.10835 55.8832 4.12687 57.0211 3.33372C57.0915 3.28465 57.1541 3.40276 57.0841 3.45151V3.4515Z" fill="#FFFFFE"/>
<path d="M52.8626 8.52448C52.4833 8.332 52.1848 8.01128 52.0207 7.61958C51.8565 7.22788 51.8372 6.79072 51.9663 6.38616C51.9927 6.30439 52.1213 6.34148 52.0949 6.42336C51.974 6.79986 51.992 7.20708 52.1456 7.57151C52.2992 7.93595 52.5784 8.2336 52.9327 8.41074C53.0097 8.44933 52.9391 8.56284 52.8626 8.52448Z" fill="#FFFFFE"/>
<path d="M52.5765 12.1783C53.4062 11.9169 54.1065 11.3532 54.538 10.5996C54.5807 10.5249 54.6947 10.5949 54.6521 10.6695C54.2016 11.4529 53.4715 12.0381 52.6076 12.3082C52.5252 12.3339 52.4946 12.2039 52.5765 12.1783Z" fill="#FFFFFE"/>
<path d="M54.9814 5.26001C55.1126 5.36499 55.2679 5.43582 55.4333 5.46613C55.5988 5.49644 55.7692 5.48529 55.9293 5.43367C56.0112 5.40695 56.0418 5.537 55.9603 5.56354C55.7832 5.61975 55.595 5.63185 55.4121 5.59876C55.2293 5.56568 55.0573 5.48842 54.9113 5.37375C54.8966 5.36409 54.8862 5.34922 54.8821 5.33216C54.878 5.31511 54.8806 5.29714 54.8893 5.28191C54.8987 5.2669 54.9136 5.25618 54.9308 5.25207C54.9481 5.24797 54.9662 5.25083 54.9814 5.26001Z" fill="#FFFFFE"/>
<path d="M64.3553 10.6274C64.3046 10.6456 64.2539 10.6637 64.2029 10.6829C63.5222 10.9303 62.8628 11.2323 62.2311 11.5862C62.1818 11.6128 62.1323 11.6405 62.0839 11.6684C60.5713 12.5372 59.2334 13.6785 58.1385 15.0344C57.7032 15.5743 57.3098 16.1465 56.9616 16.746C56.4808 17.574 56.0255 18.5098 55.3194 19.1132C55.2464 19.177 55.1695 19.2362 55.0892 19.2905L50.2711 18.1532C50.2614 18.1451 50.2515 18.1381 50.2418 18.13L50.0473 18.0934C50.0631 18.0612 50.0802 18.0282 50.096 17.996C50.1051 17.9773 50.1152 17.9589 50.1243 17.9402C50.1307 17.9278 50.1371 17.9154 50.1422 17.9039C50.1443 17.8998 50.1465 17.8956 50.1483 17.8926C50.1534 17.8811 50.1593 17.8709 50.1641 17.8604C50.2591 17.6756 50.3554 17.491 50.4533 17.3068C50.4536 17.3057 50.4536 17.3057 50.4549 17.3049C51.1871 15.8944 52.0845 14.5754 53.1282 13.3758C53.1598 13.3404 53.1916 13.3039 53.2255 13.2691C53.7021 12.7415 54.2213 12.2537 54.7776 11.8105C55.083 11.5688 55.4005 11.3426 55.7288 11.1329C56.5783 10.5928 57.5076 10.1892 58.4827 9.93716C60.4267 9.43491 62.5101 9.55845 64.225 10.5504C64.2689 10.5758 64.3118 10.6009 64.3553 10.6274Z" fill="#F8F5F2"/>
<path d="M64.33 10.6858C61.818 10.5948 59.3411 11.2957 57.2512 12.6889C56.7959 12.9809 56.3896 13.3426 56.0473 13.7607C55.727 14.1788 55.5248 14.6749 55.4616 15.1973C55.393 15.6832 55.3791 16.1882 55.1933 16.649C55.0946 16.8834 54.9474 17.0945 54.7612 17.2682C54.5751 17.4419 54.3542 17.5744 54.1131 17.657C53.5178 17.8785 52.8782 17.8733 52.2529 17.8465C51.5586 17.8169 50.8379 17.775 50.1855 18.058C50.1064 18.0923 50.0577 17.9679 50.1367 17.9337C51.2718 17.4414 52.5283 17.8975 53.7038 17.6383C54.2524 17.5173 54.7677 17.2307 55.02 16.71C55.2406 16.2546 55.2553 15.7339 55.3206 15.2413C55.3747 14.7308 55.5532 14.2412 55.8407 13.8154C56.1606 13.3812 56.5523 13.0045 56.9989 12.7013C57.9934 12.0029 59.0918 11.4648 60.2539 11.1067C61.5779 10.6907 62.9636 10.5037 64.3508 10.5538C64.4366 10.557 64.4154 10.6889 64.3301 10.6858L64.33 10.6858Z" fill="#FFFFFE"/>
<path d="M57.8977 12.2008C57.7109 11.8192 57.6662 11.3839 57.7716 10.9726C57.8769 10.5612 58.1254 10.2006 58.4726 9.95513C58.5431 9.9057 58.6234 10.0126 58.5528 10.0621C58.2291 10.29 57.9976 10.626 57.9003 11.0092C57.803 11.3925 57.8463 11.7978 58.0223 12.1521C58.0604 12.2291 57.9356 12.2774 57.8977 12.2008Z" fill="#FFFFFE"/>
<path d="M55.4639 14.9462C56.2841 15.2358 57.1835 15.2063 57.9829 14.8637C58.0621 14.8297 58.1108 14.9541 58.0317 14.9881C57.1992 15.343 56.2631 15.3718 55.4103 15.0686C55.329 15.0396 55.3831 14.9174 55.4639 14.9462Z" fill="#FFFFFE"/>
<path d="M61.5596 10.8668C61.601 11.0294 61.6823 11.1792 61.7961 11.3028C61.9099 11.4264 62.0527 11.5198 62.2116 11.5747C62.2932 11.6026 62.2391 11.7248 62.158 11.6971C61.9827 11.6356 61.8251 11.5322 61.6991 11.396C61.573 11.2597 61.4824 11.0947 61.435 10.9155C61.4291 10.899 61.4297 10.8808 61.4368 10.8647C61.4438 10.8487 61.4567 10.8359 61.4729 10.829C61.4894 10.8226 61.5078 10.823 61.524 10.8301C61.5403 10.8372 61.553 10.8503 61.5596 10.8668H61.5596Z" fill="#FFFFFE"/>
<path d="M35.852 48.1337C36.9107 45.2943 39.4119 42.8409 42.4346 42.5491C40.6174 45.2998 39.834 48.6032 40.2232 51.8746C40.3779 53.1357 40.6816 54.5223 40.0001 55.5956C39.5761 56.2635 38.8288 56.6747 38.0584 56.8602C37.2881 57.0458 36.4854 57.0314 35.693 57.016L35.5156 57.1033C34.9583 54.1254 34.7933 50.9731 35.852 48.1337Z" fill="#F8F5F2"/>
<path d="M42.4493 42.6107C40.3887 44.0467 38.834 46.0939 38.0062 48.4616C37.8189 48.9681 37.7128 49.5009 37.6919 50.0404C37.6885 50.5666 37.8264 51.0841 38.0913 51.5391C38.3298 51.9683 38.6235 52.3798 38.7532 52.8594C38.816 53.1059 38.8258 53.3628 38.782 53.6133C38.7382 53.8638 38.6419 54.1022 38.4992 54.313C38.1575 54.8474 37.6437 55.2274 37.1283 55.5816C36.556 55.9748 35.9554 56.3743 35.6052 56.9921C35.5628 57.0669 35.4489 56.9969 35.4912 56.9221C36.1004 55.8473 37.3789 55.4568 38.1611 54.5438C38.526 54.1178 38.7645 53.5795 38.6517 53.0122C38.553 52.5161 38.2505 52.0915 38.0053 51.659C37.7403 51.2189 37.5874 50.7207 37.56 50.2081C37.5533 49.6693 37.6386 49.1333 37.8123 48.623C38.1848 47.4681 38.7371 46.3787 39.4488 45.3949C40.2549 44.2675 41.2484 43.2861 42.3863 42.4929C42.4567 42.4438 42.5193 42.5619 42.4493 42.6107V42.6107Z" fill="#FFFFFE"/>
<path d="M38.2277 47.6837C37.8484 47.4912 37.55 47.1705 37.3858 46.7788C37.2216 46.3871 37.2023 45.9499 37.3314 45.5453C37.3578 45.4636 37.4864 45.5007 37.46 45.5825C37.3391 45.959 37.3571 46.3663 37.5107 46.7307C37.6643 47.0951 37.9435 47.3928 38.2978 47.5699C38.3748 47.6085 38.3042 47.722 38.2277 47.6837Z" fill="#FFFFFE"/>
<path d="M37.9417 51.3375C38.7713 51.0761 39.4717 50.5124 39.9032 49.7587C39.9459 49.684 40.0599 49.7541 40.0172 49.8287C39.5667 50.6121 38.8367 51.1973 37.9727 51.4674C37.8904 51.4931 37.8598 51.363 37.9417 51.3375Z" fill="#FFFFFE"/>
<path d="M40.3465 44.4194C40.4778 44.5244 40.6331 44.5953 40.7985 44.6256C40.964 44.6559 41.1344 44.6447 41.2944 44.5931C41.3764 44.5664 41.4069 44.6964 41.3255 44.723C41.1484 44.7792 40.9602 44.7913 40.7773 44.7582C40.5944 44.7251 40.4225 44.6479 40.2764 44.5332C40.2618 44.5235 40.2513 44.5086 40.2472 44.4916C40.2432 44.4745 40.2458 44.4566 40.2545 44.4413C40.2638 44.4263 40.2788 44.4156 40.296 44.4115C40.3132 44.4074 40.3314 44.4103 40.3465 44.4194Z" fill="#FFFFFE"/>
<path d="M49.7205 49.7866C49.6697 49.8047 49.619 49.8229 49.568 49.8421C48.8873 50.0894 48.2279 50.3915 47.5962 50.7454C47.547 50.772 47.4974 50.7997 47.449 50.8276C45.9364 51.6963 44.5986 52.8377 43.5036 54.1936C43.0684 54.7335 42.6749 55.3057 42.3267 55.9052C41.8459 56.7331 41.3906 57.669 40.6845 58.2724C40.6115 58.3361 40.5347 58.3954 40.4544 58.4496L35.6362 57.3123C35.6265 57.3043 35.6166 57.2973 35.6069 57.2892L35.4124 57.2526C35.4282 57.2204 35.4453 57.1874 35.4611 57.1552C35.4702 57.1365 35.4803 57.1181 35.4894 57.0994C35.4958 57.087 35.5022 57.0746 35.5073 57.0631C35.5094 57.0589 35.5116 57.0548 35.5134 57.0518C35.5185 57.0402 35.5244 57.03 35.5292 57.0196C35.6242 56.8347 35.7205 56.6502 35.8184 56.466C35.8187 56.4649 35.8187 56.4649 35.82 56.4641C36.5522 55.0535 37.4496 53.7346 38.4933 52.535C38.5249 52.4996 38.5567 52.4631 38.5906 52.4282C39.0673 51.9007 39.5864 51.4128 40.1427 50.9696C40.4481 50.7279 40.7656 50.5018 41.094 50.2921C41.9434 49.752 42.8727 49.3484 43.8478 49.0963C45.7918 48.5941 47.8752 48.7176 49.5902 49.7095C49.634 49.7349 49.6769 49.7601 49.7205 49.7866Z" fill="#F8F5F2"/>
<path d="M49.6952 49.845C47.1832 49.754 44.7063 50.4549 42.6163 51.8481C42.1611 52.14 41.7548 52.5018 41.4124 52.9199C41.0922 53.338 40.8899 53.834 40.8268 54.3564C40.7581 54.8424 40.7443 55.3473 40.5584 55.8082C40.4598 56.0426 40.3125 56.2536 40.1264 56.4274C39.9402 56.6011 39.7194 56.7336 39.4783 56.8162C38.883 57.0376 38.2434 57.0325 37.618 57.0057C36.9238 56.976 36.2031 56.9342 35.5507 57.2172C35.4716 57.2515 35.4229 57.1271 35.5018 57.0929C36.637 56.6006 37.8935 57.0567 39.069 56.7974C39.6175 56.6765 40.1328 56.3899 40.3851 55.8692C40.6058 55.4138 40.6205 54.8931 40.6857 54.4005C40.7398 53.8899 40.9184 53.4004 41.2059 52.9746C41.5258 52.5404 41.9174 52.1636 42.364 51.8605C43.3585 51.1621 44.457 50.624 45.6191 50.2659C46.9431 49.8499 48.3287 49.6629 49.7159 49.713C49.8018 49.7162 49.7805 49.8481 49.6952 49.845L49.6952 49.845Z" fill="#FFFFFE"/>
<path d="M43.2628 51.3599C43.076 50.9784 43.0314 50.5431 43.1367 50.1318C43.242 49.7204 43.4905 49.3598 43.8377 49.1143C43.9082 49.0649 43.9885 49.1717 43.9179 49.2212C43.5942 49.4492 43.3627 49.7852 43.2654 50.1684C43.1682 50.5517 43.2114 50.957 43.3874 51.3112C43.4256 51.3883 43.3007 51.4365 43.2628 51.3599Z" fill="#FFFFFE"/>
<path d="M40.8291 54.1056C41.6493 54.3952 42.5487 54.3658 43.3481 54.0232C43.4273 53.9892 43.476 54.1135 43.3969 54.1475C42.5644 54.5024 41.6283 54.5312 40.7755 54.228C40.6942 54.199 40.7483 54.0768 40.8291 54.1056Z" fill="#FFFFFE"/>
<path d="M46.9248 50.0262C46.9662 50.1888 47.0474 50.3387 47.1612 50.4622C47.275 50.5858 47.4178 50.6792 47.5768 50.7341C47.6584 50.7621 47.6043 50.8842 47.5232 50.8565C47.3479 50.795 47.1903 50.6916 47.0642 50.5554C46.9382 50.4191 46.8475 50.2542 46.8001 50.0749C46.7943 50.0584 46.7949 50.0402 46.8019 50.0242C46.809 50.0081 46.8219 49.9953 46.838 49.9884C46.8546 49.982 46.873 49.9824 46.8892 49.9895C46.9054 49.9966 46.9182 50.0098 46.9248 50.0262H46.9248Z" fill="#FFFFFE"/>
<path d="M95.8281 69.4161C95.2879 67.4014 95.7116 65.0297 97.2917 63.6641C97.3707 65.9307 98.2509 68.0964 99.7765 69.778C100.367 70.4243 101.092 71.0819 101.138 71.9554C101.141 72.5058 100.931 73.0363 100.553 73.4372C100.177 73.8324 99.752 74.1778 99.2879 74.4652L99.2232 74.5847C97.7205 73.1347 96.3684 71.4309 95.8281 69.4161Z" fill="#F8F5F2"/>
<path d="M97.3246 63.6931C96.7418 65.3185 96.6871 67.0857 97.1684 68.7439C97.2657 69.1027 97.419 69.4439 97.6228 69.7551C97.8312 70.0518 98.1154 70.2874 98.4459 70.4375C98.7639 70.56 99.0658 70.7204 99.345 70.9155C99.4787 71.0289 99.5868 71.1692 99.6623 71.3272C99.7379 71.4852 99.779 71.6574 99.7832 71.8324C99.7809 72.2648 99.6916 72.6923 99.5205 73.0896C99.3564 73.5378 99.1789 74.0009 99.2292 74.4869C99.2353 74.5458 99.1433 74.5518 99.1372 74.493C99.0497 73.6474 99.6114 72.9199 99.6856 72.0964C99.7139 71.9066 99.6982 71.7129 99.6399 71.5301C99.5815 71.3473 99.4821 71.1802 99.349 71.0416C99.0954 70.8024 98.7559 70.6843 98.4455 70.5391C98.1209 70.3974 97.836 70.1785 97.6158 69.9017C97.3968 69.6019 97.2305 69.2671 97.1241 68.9116C96.8717 68.1152 96.7464 67.2841 96.7529 66.4489C96.7549 65.4956 96.9204 64.5497 97.2422 63.652C97.2621 63.5965 97.3445 63.6379 97.3247 63.6931L97.3246 63.6931Z" fill="#FFFFFE"/>
<path d="M96.9819 68.219C96.6921 68.2618 96.3964 68.2004 96.1477 68.0458C95.8991 67.8912 95.7136 67.6535 95.6244 67.3751C95.6066 67.3187 95.6936 67.2883 95.7114 67.3448C95.794 67.6042 95.9668 67.8257 96.1987 67.9691C96.4305 68.1126 96.7062 68.1687 96.9758 68.1273C97.0344 68.1183 97.0402 68.2101 96.9819 68.219Z" fill="#FFFFFE"/>
<path d="M98.2812 70.3838C98.6425 69.9072 98.8104 69.3123 98.7515 68.7177C98.7456 68.6588 98.8375 68.6528 98.8434 68.7116C98.9036 69.3305 98.7276 69.9492 98.3505 70.4444C98.3146 70.4915 98.2455 70.4307 98.2812 70.3838Z" fill="#FFFFFE"/>
<path d="M96.8669 65.544C96.9825 65.5508 97.098 65.5288 97.203 65.48C97.308 65.4312 97.3992 65.3572 97.4684 65.2646C97.5037 65.217 97.5728 65.2779 97.5377 65.3252C97.4608 65.4271 97.36 65.5087 97.2441 65.5629C97.1282 65.617 97.0008 65.642 96.873 65.6357C96.8609 65.6361 96.8491 65.6319 96.84 65.624C96.8309 65.616 96.8252 65.6049 96.824 65.5929C96.8233 65.5808 96.8273 65.5688 96.8354 65.5596C96.8434 65.5505 96.8548 65.5449 96.8669 65.544Z" fill="#FFFFFE"/>
<path d="M104.273 64.8298C104.252 64.8602 104.231 64.8905 104.21 64.9216C103.927 65.3311 103.677 65.7628 103.464 66.2126C103.447 66.2471 103.43 66.2824 103.414 66.3173C102.912 67.4064 102.617 68.5789 102.544 69.7754C102.516 70.2515 102.524 70.7291 102.568 71.2041C102.629 71.86 102.747 72.5664 102.592 73.1858C102.576 73.2506 102.557 73.3144 102.533 73.3768L99.3745 74.6541C99.3658 74.6535 99.3575 74.6535 99.3488 74.6528L99.225 74.7096C99.221 74.6852 99.2174 74.6599 99.2134 74.6356C99.211 74.6215 99.2094 74.6071 99.207 74.593C99.2056 74.5835 99.2043 74.5739 99.2025 74.5655C99.2021 74.5623 99.2016 74.5591 99.2015 74.5567C99.1997 74.5482 99.199 74.5401 99.1975 74.5323C99.1769 74.3908 99.1573 74.2489 99.1386 74.1066C99.1383 74.1059 99.1383 74.1059 99.1387 74.1049C98.9861 73.022 98.9629 71.9249 99.0694 70.8365C99.073 70.8041 99.0763 70.7709 99.0814 70.7379C99.1381 70.2522 99.2346 69.772 99.3698 69.302C99.4447 69.0449 99.5325 68.7918 99.633 68.5435C99.894 67.9026 100.254 67.3066 100.701 66.7773C101.592 65.7225 102.81 64.9635 104.169 64.8384C104.204 64.8352 104.238 64.8323 104.273 64.8298Z" fill="#F8F5F2"/>
<path d="M104.282 64.8729C102.836 65.8206 101.726 67.1988 101.109 68.8118C100.97 69.1567 100.887 69.5213 100.862 69.8922C100.849 70.2542 100.934 70.613 101.107 70.9314C101.287 71.2201 101.431 71.5295 101.536 71.8529C101.575 72.0238 101.576 72.2008 101.541 72.3723C101.506 72.5438 101.435 72.706 101.333 72.8483C101.07 73.1921 100.741 73.4798 100.364 73.6943C99.9628 73.9536 99.5416 74.2167 99.2884 74.635C99.2578 74.6856 99.1807 74.6352 99.2113 74.5846C99.6518 73.8569 100.539 73.6134 101.096 73.0004C101.233 72.8659 101.337 72.7018 101.401 72.5208C101.465 72.3398 101.486 72.1466 101.463 71.9561C101.405 71.6128 101.206 71.3146 101.045 71.0122C100.872 70.7041 100.776 70.3583 100.768 70.005C100.774 69.6341 100.843 69.2669 100.973 68.9192C101.252 68.1317 101.653 67.3929 102.163 66.7299C102.74 65.9699 103.443 65.314 104.241 64.7906C104.291 64.7582 104.332 64.8407 104.282 64.8729L104.282 64.8729Z" fill="#FFFFFE"/>
<path d="M101.277 68.2807C101.02 68.1408 100.821 67.9142 100.716 67.6414C100.61 67.3686 100.606 67.0674 100.703 66.7916C100.722 66.7358 100.81 66.7639 100.79 66.8197C100.7 67.0764 100.704 67.357 100.803 67.6108C100.901 67.8646 101.087 68.0749 101.328 68.2038C101.38 68.2318 101.329 68.3086 101.277 68.2807Z" fill="#FFFFFE"/>
<path d="M101.008 70.7895C101.584 70.626 102.077 70.2518 102.389 69.7417C102.42 69.6911 102.497 69.7415 102.466 69.792C102.141 70.3223 101.627 70.7106 101.027 70.8795C100.97 70.8956 100.951 70.8055 101.008 70.7895V70.7895Z" fill="#FFFFFE"/>
<path d="M102.8 66.076C102.888 66.1509 102.993 66.2027 103.107 66.2268C103.22 66.2509 103.337 66.2466 103.449 66.2142C103.505 66.1974 103.524 66.2875 103.467 66.3042C103.344 66.3394 103.215 66.344 103.089 66.3176C102.964 66.2913 102.847 66.2347 102.749 66.1529C102.739 66.146 102.732 66.1356 102.73 66.1237C102.727 66.1119 102.73 66.0996 102.736 66.0893C102.743 66.0791 102.753 66.0721 102.765 66.0696C102.777 66.0671 102.789 66.0694 102.8 66.076Z" fill="#FFFFFE"/>
</g>
<defs>
<clipPath id="clip0">
<rect width="112" height="120" fill="white"/>
</clipPath>
</defs>
</svg>
