<svg width="304" height="167" viewBox="0 0 304 167" fill="none" xmlns="http://www.w3.org/2000/svg">
<path d="M302.718 0.13623H62.4773V153.928H302.718V0.13623Z" fill="#F8F5F2"/>
<path d="M170.451 20.7878H83.7209V109.868H170.451V20.7878Z" fill="#FFFFFE"/>
<path d="M289.62 22.5154H202.889V130.709H289.62V22.5154Z" fill="#FFFFFE"/>
<path d="M288.464 165.11C297.044 165.11 304 164.116 304 162.891C304 161.666 297.044 160.673 288.464 160.673C279.883 160.673 272.927 161.666 272.927 162.891C272.927 164.116 279.883 165.11 288.464 165.11Z" fill="#F8F5F2"/>
<path d="M133.134 165.159C141.715 165.159 148.67 164.166 148.67 162.941C148.67 161.716 141.715 160.723 133.134 160.723C124.554 160.723 117.598 161.716 117.598 162.941C117.598 164.166 124.554 165.159 133.134 165.159Z" fill="#F8F5F2"/>
<path d="M35.6567 162.429C55.3493 162.429 71.3133 161.665 71.3133 160.723C71.3133 159.78 55.3493 159.016 35.6567 159.016C15.964 159.016 0 159.78 0 160.723C0 161.665 15.964 162.429 35.6567 162.429Z" fill="#F8F5F2"/>
<path d="M302.616 0H62.3747V10.2017H302.616V0Z" fill="#078080"/>
<path d="M69.9592 7.10646C71.0039 7.10646 71.8509 6.25991 71.8509 5.21564C71.8509 4.17138 71.0039 3.32483 69.9592 3.32483C68.9145 3.32483 68.0675 4.17138 68.0675 5.21564C68.0675 6.25991 68.9145 7.10646 69.9592 7.10646Z" fill="#F8F5F2"/>
<path d="M77.1395 7.10646C78.1842 7.10646 79.0311 6.25991 79.0311 5.21564C79.0311 4.17138 78.1842 3.32483 77.1395 3.32483C76.0947 3.32483 75.2478 4.17138 75.2478 5.21564C75.2478 6.25991 76.0947 7.10646 77.1395 7.10646Z" fill="#F8F5F2"/>
<path d="M84.3198 7.10646C85.3645 7.10646 86.2114 6.25991 86.2114 5.21564C86.2114 4.17138 85.3645 3.32483 84.3198 3.32483C83.275 3.32483 82.4281 4.17138 82.4281 5.21564C82.4281 6.25991 83.275 7.10646 84.3198 7.10646Z" fill="#F8F5F2"/>
<path d="M270.498 51.5365H269.973V37.1503C269.973 36.0569 269.757 34.9741 269.339 33.964C268.92 32.9538 268.306 32.0359 267.533 31.2627C266.759 30.4895 265.841 29.8762 264.83 29.4578C263.82 29.0393 262.736 28.824 261.643 28.824H231.15C230.056 28.824 228.973 29.0393 227.962 29.4578C226.951 29.8762 226.033 30.4895 225.26 31.2627C224.486 32.0359 223.872 32.9538 223.454 33.964C223.035 34.9741 222.82 36.0569 222.82 37.1503V116.074C222.82 117.167 223.035 118.25 223.454 119.26C223.872 120.27 224.486 121.188 225.26 121.961C226.033 122.735 226.951 123.348 227.962 123.766C228.973 124.185 230.056 124.4 231.15 124.4H261.643C262.736 124.4 263.82 124.185 264.83 123.766C265.841 123.348 266.759 122.735 267.533 121.961C268.306 121.188 268.92 120.27 269.339 119.26C269.757 118.25 269.973 117.167 269.973 116.074V61.7768H270.498V51.5365Z" fill="#232323"/>
<path d="M261.637 30.9901H257.657C257.84 31.4387 257.91 31.9253 257.86 32.4073C257.811 32.8892 257.644 33.3515 257.373 33.7536C257.103 34.1557 256.738 34.4852 256.31 34.713C255.882 34.9408 255.405 35.0599 254.921 35.06H237.452C236.967 35.0599 236.49 34.9408 236.062 34.7129C235.634 34.4851 235.269 34.1557 234.999 33.7536C234.729 33.3515 234.561 32.8892 234.512 32.4073C234.462 31.9253 234.532 31.4387 234.715 30.9901H230.998C230.181 30.9901 229.372 31.1509 228.617 31.4634C227.862 31.7759 227.177 32.2339 226.599 32.8113C226.021 33.3887 225.563 34.0742 225.25 34.8286C224.938 35.583 224.777 36.3915 224.777 37.2081V116.016C224.777 116.832 224.938 117.641 225.25 118.395C225.563 119.15 226.021 119.835 226.599 120.413C227.177 120.99 227.862 121.448 228.617 121.761C229.372 122.073 230.181 122.234 230.998 122.234H261.637C262.454 122.234 263.263 122.073 264.018 121.761C264.773 121.448 265.458 120.99 266.036 120.413C266.614 119.835 267.072 119.15 267.384 118.395C267.697 117.641 267.858 116.832 267.858 116.016V37.2081C267.858 35.559 267.203 33.9774 266.036 32.8113C264.869 31.6452 263.287 30.9901 261.637 30.9901Z" fill="#FFFFFE"/>
<path d="M157.287 77.0581H97.0047V79.8065H157.287V77.0581Z" fill="#F8F5F2"/>
<path d="M157.287 85.932H97.0047V88.6804H157.287V85.932Z" fill="#078080"/>
<path d="M157.287 94.8059H97.0047V97.5543H157.287V94.8059Z" fill="#F8F5F2"/>
<path d="M264.255 83.0549H229.063V85.8033H264.255V83.0549Z" fill="#F8F5F2"/>
<path d="M264.255 91.5875H229.063V94.3359H264.255V91.5875Z" fill="#F8F5F2"/>
<path d="M264.255 100.12H229.063V102.869H264.255V100.12Z" fill="#F8F5F2"/>
<path d="M267.934 142.798V136.936H262.069V142.798H267.934Z" fill="#232323"/>
<path d="M258.485 142.798V136.936H252.619V142.798H258.485Z" fill="#078080"/>
<path d="M249.035 142.798V136.936H243.17V142.798H249.035Z" fill="#232323"/>
<path d="M239.585 142.798V136.936H233.72V142.798H239.585Z" fill="#232323"/>
<path d="M230.136 142.798V136.936H224.27V142.798H230.136Z" fill="#232323"/>
<path d="M256.093 47.438H236.542V66.9803H256.093V47.438Z" fill="#078080"/>
<path d="M119.375 94.0609L119.122 94.5668L118.363 90.7726C118.363 90.7726 117.351 86.7253 119.375 86.7253C121.4 86.7253 120.894 90.7726 120.894 90.7726V93.555L119.375 94.0609Z" fill="#A0616A"/>
<path d="M152.579 93.543L152.832 94.0489L153.591 90.2546C153.591 90.2546 154.604 86.2074 152.579 86.2074C150.554 86.2074 151.061 90.2546 151.061 90.2546V93.0371L152.579 93.543Z" fill="#A0616A"/>
<path d="M130.51 122.508L127.474 141.226L128.992 159.438L132.535 157.921L132.029 144.261L135.572 133.384L136.331 146.285L134.812 159.691L139.368 160.198L142.657 132.626L142.404 123.266L130.51 122.508Z" fill="#232323"/>
<path d="M130.51 157.162L128.739 159.944V166.162C128.739 166.341 128.803 166.514 128.919 166.65C129.035 166.787 129.196 166.877 129.373 166.906C130.241 167.048 131.753 167.15 132.282 166.268C133.041 165.004 132.535 162.221 132.535 162.221C132.535 162.221 133.547 160.197 133.041 158.68C132.535 157.162 132.029 156.909 132.029 156.909L130.51 157.162Z" fill="#232323"/>
<path d="M138.102 159.691L138.608 160.45C138.608 160.45 139.367 161.209 138.861 161.715C138.49 162.108 138.151 162.531 137.849 162.98C137.849 162.98 135.065 163.739 135.065 162.727V159.438L138.102 159.691Z" fill="#232323"/>
<path d="M137.19 101.92C139.043 101.92 140.545 100.419 140.545 98.5669C140.545 96.7151 139.043 95.2139 137.19 95.2139C135.337 95.2139 133.836 96.7151 133.836 98.5669C133.836 100.419 135.337 101.92 137.19 101.92Z" fill="#A0616A"/>
<path d="M134.939 99.6155L134.686 104.422L139.241 104.675L138.988 99.8684L134.939 99.6155Z" fill="#A0616A"/>
<path d="M139.874 104.801L139.155 103.047C139.155 103.047 135.825 101.766 134.812 103.03L134.306 104.548L130.257 103.536L127.979 108.595L130.004 123.014C130.004 123.014 135.318 129.843 142.404 123.266L144.429 109.607L142.91 104.295L139.874 104.801Z" fill="#F45D48"/>
<path d="M142.404 105.307L142.91 104.295L147.972 101.259L151.061 92.1204L153.451 93.1443L150.755 104.042L143.416 110.872L142.404 105.307Z" fill="#F45D48"/>
<path d="M130.763 104.042L130.257 103.536L124.943 100.248L121.147 92.6592L118.11 93.6708L121.4 103.03L129.498 109.607L130.763 104.042Z" fill="#F45D48"/>
<path d="M139.68 93.4321L140.228 93.1579L139.406 92.8838V92.6097C139.406 92.6097 135.292 90.965 134.744 93.7062C134.036 94.6569 133.653 95.8104 133.653 96.9955C133.653 98.1807 134.036 99.3342 134.744 100.285V101.107L139.131 101.656L139.68 100.011C139.68 100.011 142.422 95.0767 139.68 93.4321Z" fill="#232323"/>
<path d="M39.2982 122.805L38.3232 123.292C38.3232 123.292 34.4232 125.079 35.5607 126.053C36.6982 127.028 39.7857 125.079 39.7857 125.079L40.4357 124.266L39.2982 122.805Z" fill="#FFB8B8"/>
<path d="M67.8247 122.562L64.811 142.783L60.2607 156.914L57.8234 155.777L60.0982 136.449L53.5982 130.926L54.0858 122.805L67.8247 122.562Z" fill="#232323"/>
<path d="M57.4983 156.265C57.4983 156.265 60.2608 154.803 60.4233 156.914L60.0983 159.026C60.0983 159.026 61.0733 162.762 57.8233 161.95C54.5733 161.137 56.8483 158.701 56.8483 158.701L57.4983 156.265Z" fill="#232323"/>
<path d="M55.7108 129.139L53.5983 130.926C53.5983 130.926 53.5983 141.971 55.0608 143.595C56.5233 145.22 65.7858 153.503 66.1108 153.828C66.4358 154.153 67.8984 150.58 67.8984 150.58L59.1233 140.347L59.7733 134.012L55.7108 129.139Z" fill="#232323"/>
<path d="M66.9233 150.092C66.9233 150.092 69.5234 149.605 69.5234 151.392C69.5557 152.804 69.6642 154.214 69.8484 155.615C69.8484 155.615 70.4984 161.3 68.3859 160.488C66.2733 159.676 65.4608 153.991 65.4608 153.991C65.6574 153.518 65.9987 153.12 66.4358 152.854C67.0858 152.529 66.9233 150.092 66.9233 150.092Z" fill="#232323"/>
<path d="M58.7983 98.4402L59.2859 104.45L57.9859 106.724L54.4109 103.313L54.0858 98.7651L58.7983 98.4402Z" fill="#FFB8B8"/>
<path d="M55.8733 100.389C58.0272 100.389 59.7733 98.6441 59.7733 96.4912C59.7733 94.3382 58.0272 92.5929 55.8733 92.5929C53.7194 92.5929 51.9733 94.3382 51.9733 96.4912C51.9733 98.6441 53.7194 100.389 55.8733 100.389Z" fill="#FFB8B8"/>
<path d="M57.4983 104.288L59.1233 99.5774L62.0483 102.826L67.4108 123.454L63.3482 125.891L61.561 123.292L61.2359 126.703L53.2731 125.078L52.6234 103.313L54.2473 101.027L57.4983 104.288Z" fill="#078080"/>
<path d="M55.2232 127.352L54.2483 101.039L52.1358 102.664L48.2356 105.262L50.8358 114.521L51.6481 124.266L55.2232 127.352Z" fill="#232323"/>
<path d="M49.3734 105.425L48.2356 105.262L44.9856 114.845L38.4857 122.967L40.9233 125.566L48.3982 118.256L51.1609 112.247L49.3734 105.425Z" fill="#232323"/>
<path d="M67.1196 122.953L66.8979 124.02C66.8979 124.02 65.8835 128.187 67.3537 127.898C68.8239 127.61 69.2072 123.98 69.2072 123.98L68.9724 122.967L67.1196 122.953Z" fill="#FFB8B8"/>
<path d="M58.8693 99.3137L66.9232 102.501L65.9484 112.247L67.8984 122.967L65.9484 125.078L58.7382 100.694L58.8693 99.3137Z" fill="#232323"/>
<path d="M56.0775 89.944L57.2223 89.3718V89.944L57.9854 89.5625V90.5161C57.9854 90.5161 60.8474 92.6139 60.275 95.0931C59.7026 97.5724 59.7026 97.7631 59.7026 97.7631C59.7026 97.7631 58.979 93.0482 56.1171 93.8111C53.2551 94.5739 53.0248 94.7117 52.2616 96.8095L52.0545 97.7094C52.0545 97.7094 48.8273 90.3254 56.0775 89.944Z" fill="#232323"/>
<path d="M65.7858 102.501H67.0858L69.1984 113.871V123.779L66.5985 123.292L64.4859 108.348L65.7858 102.501Z" fill="#232323"/>
<path d="M49.1207 126.546H1.20706V159.827H49.1207V126.546Z" fill="#078080"/>
<path d="M25.1639 133.04C23.1561 133.04 21.1935 133.635 19.5242 134.75C17.8548 135.865 16.5537 137.449 15.7854 139.303C15.0171 141.158 14.816 143.198 15.2077 145.166C15.5994 147.134 16.5662 148.942 17.9859 150.361C19.4056 151.78 21.2143 152.747 23.1835 153.138C25.1526 153.53 27.1937 153.329 29.0485 152.561C30.9034 151.793 32.4888 150.492 33.6043 148.824C34.7197 147.155 35.315 145.193 35.315 143.186C35.3072 140.498 34.2351 137.922 32.3331 136.02C30.4311 134.119 27.8537 133.048 25.1639 133.04ZM25.1639 136.084C25.7662 136.084 26.355 136.262 26.8558 136.597C27.3566 136.931 27.7469 137.407 27.9774 137.963C28.2079 138.519 28.2682 139.131 28.1507 139.722C28.0332 140.312 27.7431 140.855 27.3172 141.28C26.8913 141.706 26.3487 141.996 25.758 142.113C25.1672 142.231 24.5549 142.17 23.9984 141.94C23.442 141.71 22.9664 141.32 22.6317 140.819C22.2971 140.318 22.1185 139.73 22.1185 139.128C22.1212 138.321 22.4429 137.549 23.0134 136.978C23.584 136.408 24.357 136.086 25.1639 136.084ZM25.1639 150.738C23.9608 150.732 22.7773 150.434 21.7159 149.867C20.6546 149.301 19.7474 148.485 19.0731 147.489C19.1219 145.46 23.1336 144.343 25.1639 144.343C27.1941 144.343 31.2058 145.46 31.2546 147.489C30.5795 148.484 29.6722 149.3 28.611 149.866C27.5498 150.432 26.3667 150.731 25.1639 150.738Z" fill="#FFFFFE"/>
<path d="M157.134 31.027H97.0377V65.4987H157.134V31.027Z" fill="#F8F5F2"/>
<path d="M275.967 99.3991L276.245 97.6039C276.245 97.6039 277.868 93.916 276.585 93.7172C275.302 93.5184 274.232 97.0293 274.232 97.0293L274.702 100.779L275.967 99.3991Z" fill="#FFB8B8"/>
<path d="M289.102 109.576L277.635 107.274L276.303 98.9259L272.927 98.6655L273.092 109.459L283.055 114.679L289.102 109.576Z" fill="#F45D48"/>
<path opacity="0.2" d="M289.102 109.576L277.635 107.274L276.303 98.9259L272.927 98.6655L273.092 109.459L283.055 114.679L289.102 109.576Z" fill="#232323"/>
<path d="M257.907 97.1912H293.099V94.4427H257.907V97.1912Z" fill="#078080"/>
<path d="M273.726 98.7837L273.729 96.967C273.729 96.967 274.772 93.0755 273.474 93.0739C272.176 93.0722 271.652 96.7049 271.652 96.7049L272.686 100.34L273.726 98.7837Z" fill="#FFB8B8"/>
<path d="M288.652 103.987L290.225 103.603C290.826 103.604 291.419 103.472 291.961 103.215C292.504 102.959 292.983 102.585 293.363 102.121C293.744 101.656 294.016 101.113 294.161 100.531C294.306 99.9487 294.319 99.3414 294.2 98.7532C294.201 98.0583 294.065 97.3701 293.8 96.7277C293.535 96.0854 293.145 95.5015 292.654 95.0095C292.163 94.5176 291.58 94.127 290.938 93.8603C290.296 93.5936 289.608 93.4558 288.913 93.455C288.218 93.4541 287.529 93.5901 286.887 93.8552C286.244 94.1203 285.66 94.5094 285.168 95.0001C284.675 95.4909 284.285 96.0737 284.018 96.7154C283.751 97.3571 283.613 98.045 283.612 98.7399C283.409 99.4478 283.395 100.197 283.572 100.912C283.749 101.626 284.111 102.282 284.621 102.814C285.131 103.345 285.772 103.733 286.48 103.939C287.187 104.145 287.936 104.161 288.652 103.987Z" fill="#232323"/>
<path d="M279.399 130.193L280.68 144.209L282.999 157.967L286.893 157.971L286.391 144.476L284.335 128.123L279.399 130.193Z" fill="#232323"/>
<path d="M283.519 157.189L280.921 158.743C280.921 158.743 276.766 159.257 277.543 160.555C278.32 161.854 287.409 161.087 287.409 160.568C287.41 160.048 287.154 157.193 286.635 157.193L283.519 157.189Z" fill="#232323"/>
<path d="M290.895 128.982C290.895 128.982 290.822 130.986 289.001 134.098L289.248 143.701L298.58 155.651L295.201 158.501L283.793 145.511L280.957 129.936L284.596 126.307L290.895 128.982Z" fill="#232323"/>
<path d="M297.801 155.65C297.801 155.65 300.916 156.173 300.395 157.47C299.875 158.767 298.569 164.734 295.194 163.951C295.194 163.951 293.637 163.949 294.157 162.912C294.47 162.288 294.818 161.682 295.198 161.096L295.202 157.723L297.801 155.65Z" fill="#232323"/>
<path d="M286.966 104.25C289.117 104.25 290.861 102.508 290.861 100.358C290.861 98.2076 289.117 96.4647 286.966 96.4647C284.815 96.4647 283.071 98.2076 283.071 100.358C283.071 102.508 284.815 104.25 286.966 104.25Z" fill="#FFB8B8"/>
<path d="M288.78 102.955L288.775 107.367L284.62 107.362L285.145 102.951L288.78 102.955Z" fill="#FFB8B8"/>
<path d="M283.584 105.803L284.843 105.494L288.777 105.81C288.777 105.81 290.851 107.889 290.591 108.407C290.33 108.926 289.016 121.641 289.016 121.641L291.342 130.727L283.032 131.236L278.879 130.712L279.678 114.363C279.678 114.363 277.866 109.948 280.205 108.654C281.526 107.961 282.679 106.988 283.584 105.803Z" fill="#F45D48"/>
<path d="M288.256 106.847L276.573 106.313L273.987 98.2651L270.611 98.5201L272.415 109.163L283.056 112.81L288.256 106.847Z" fill="#F45D48"/>
<path d="M294.484 97.4895C295.872 97.4895 296.997 96.365 296.997 94.9779C296.997 93.5908 295.872 92.4663 294.484 92.4663C293.096 92.4663 291.971 93.5908 291.971 94.9779C291.971 96.365 293.096 97.4895 294.484 97.4895Z" fill="#232323"/>
<path d="M292.165 93.6277C292.166 93.2562 292.248 92.8893 292.408 92.5537C292.567 92.218 292.799 91.9219 293.087 91.6866C293.374 91.4514 293.711 91.2829 294.071 91.1933C294.432 91.1037 294.808 91.0953 295.173 91.1686C294.851 91.0168 294.501 90.9349 294.145 90.9284C293.79 90.9219 293.437 90.9909 293.11 91.131C292.783 91.271 292.49 91.4787 292.25 91.7406C292.009 92.0024 291.827 92.3122 291.715 92.6497C291.603 92.9871 291.565 93.3444 291.601 93.6979C291.638 94.0514 291.75 94.3931 291.928 94.7004C292.107 95.0076 292.349 95.2735 292.638 95.4802C292.928 95.687 293.257 95.8301 293.606 95.8999C293.175 95.6969 292.811 95.3754 292.555 94.9731C292.3 94.5707 292.165 94.1041 292.165 93.6277Z" fill="#232323"/>
<path d="M290.01 95.0522L286.622 94.4287L284.017 96.0608C283.377 96.462 282.865 97.0384 282.542 97.7217C282.219 98.4049 282.099 99.1664 282.197 99.9156L284.806 99.2546L285.39 97.7903L286.086 98.9303L288.909 103.864L291.767 102.31L293.588 99.4575L290.01 95.0522Z" fill="#232323"/>
<path d="M97.2077 30.7311L96.8678 31.323L156.964 65.7947L157.304 65.2028L97.2077 30.7311Z" fill="#FFFFFE"/>
<path d="M156.966 30.7334L96.8665 65.2004L97.2063 65.7924L157.305 31.3253L156.966 30.7334Z" fill="#FFFFFE"/>
<path d="M236.935 47.1683L236.452 47.6509L255.915 67.1052L256.398 66.6226L236.935 47.1683Z" fill="#FFFFFE"/>
<path d="M255.915 47.1682L236.452 66.6226L236.935 67.1052L256.398 47.6509L255.915 47.1682Z" fill="#FFFFFE"/>
</svg>
