<svg width="268" height="258" viewBox="0 0 268 258" fill="none" xmlns="http://www.w3.org/2000/svg">
<g clip-path="url(#clip0)">
<path d="M225.548 61.1504H224.14V22.4174C224.14 16.472 221.785 10.77 217.594 6.56592C213.402 2.36183 207.717 2.92424e-09 201.79 2.92424e-09H119.973C117.038 -4.75449e-05 114.131 0.57975 111.42 1.70629C108.708 2.83283 106.244 4.48404 104.169 6.56566C102.093 8.64728 100.447 11.1185 99.3235 13.8383C98.2003 16.5581 97.6221 19.4732 97.6221 22.4171V234.909C97.6221 240.855 99.9768 246.557 104.168 250.761C108.36 254.965 114.045 257.327 119.972 257.327H201.788C207.716 257.327 213.401 254.965 217.593 250.761C221.784 246.557 224.139 240.855 224.139 234.909V88.7212H225.547L225.548 61.1504Z" fill="#232323"/>
<path d="M219.555 20.916V236.41C219.555 240.918 217.769 245.241 214.592 248.429C211.414 251.616 207.104 253.408 202.61 253.41H119.115C114.619 253.41 110.306 251.62 107.127 248.432C103.947 245.244 102.16 240.919 102.158 236.41V20.916C102.16 16.4066 103.947 12.0824 107.126 8.89446C110.306 5.70652 114.618 3.91593 119.114 3.9165H129.242C128.745 5.14319 128.556 6.47362 128.691 7.79086C128.827 9.10811 129.282 10.3718 130.019 11.471C130.755 12.5701 131.749 13.471 132.914 14.0944C134.079 14.7179 135.379 15.0448 136.699 15.0465H184.301C185.621 15.0448 186.921 14.7179 188.086 14.0944C189.25 13.471 190.245 12.5701 190.981 11.471C191.717 10.3718 192.173 9.10811 192.309 7.79086C192.444 6.47362 192.255 5.14319 191.757 3.9165H202.607C207.101 3.91727 211.411 5.70808 214.589 8.89523C217.767 12.0824 219.554 16.405 219.555 20.9127V20.916Z" fill="#FFFFFE"/>
<path d="M160.841 107.423C180.093 107.423 195.7 91.7699 195.7 72.4603C195.7 53.1507 180.093 37.4972 160.841 37.4972C141.59 37.4972 125.983 53.1507 125.983 72.4603C125.983 91.7699 141.59 107.423 160.841 107.423Z" fill="#F45D48"/>
<path d="M198.859 145.043H124.663C124.299 145.043 123.95 144.897 123.692 144.639C123.435 144.381 123.29 144.03 123.289 143.665V125.205C123.29 124.84 123.435 124.49 123.692 124.231C123.95 123.973 124.299 123.828 124.663 123.827H198.859C199.223 123.828 199.572 123.973 199.83 124.231C200.087 124.49 200.232 124.84 200.233 125.205V143.665C200.232 144.031 200.087 144.381 199.83 144.639C199.572 144.898 199.223 145.043 198.859 145.043V145.043ZM124.663 124.378C124.445 124.379 124.235 124.466 124.081 124.621C123.926 124.776 123.839 124.986 123.839 125.205V143.665C123.839 143.885 123.926 144.095 124.081 144.25C124.235 144.405 124.445 144.492 124.663 144.492H198.859C199.077 144.492 199.287 144.405 199.442 144.25C199.596 144.095 199.683 143.885 199.683 143.665V125.205C199.683 124.986 199.596 124.776 199.442 124.621C199.287 124.466 199.077 124.379 198.859 124.378H124.663Z" fill="#F8F5F2"/>
<path d="M147.609 130.475C147.354 130.475 147.109 130.577 146.929 130.758C146.748 130.939 146.647 131.184 146.647 131.44C146.647 131.696 146.748 131.941 146.929 132.122C147.109 132.303 147.354 132.405 147.609 132.405H192.95C193.205 132.415 193.453 132.322 193.641 132.148C193.828 131.975 193.938 131.733 193.948 131.478C193.958 131.222 193.866 130.973 193.693 130.785C193.519 130.597 193.279 130.486 193.024 130.476C193.01 130.476 192.996 130.476 192.981 130.476H147.609L147.609 130.475Z" fill="#F8F5F2"/>
<path d="M147.609 136.263C147.354 136.263 147.109 136.364 146.929 136.545C146.748 136.726 146.647 136.971 146.647 137.227C146.647 137.483 146.748 137.729 146.929 137.909C147.109 138.09 147.354 138.192 147.609 138.192H192.95C193.205 138.202 193.453 138.11 193.641 137.936C193.828 137.762 193.938 137.52 193.948 137.265C193.958 137.009 193.866 136.76 193.693 136.572C193.519 136.384 193.279 136.273 193.024 136.264C193.01 136.263 192.996 136.263 192.981 136.263H147.609L147.609 136.263Z" fill="#F8F5F2"/>
<path d="M198.859 175.812H124.663C124.299 175.811 123.95 175.666 123.692 175.408C123.435 175.149 123.29 174.799 123.289 174.434V155.974C123.29 155.609 123.435 155.258 123.692 155C123.95 154.742 124.299 154.596 124.663 154.596H198.859C199.223 154.596 199.572 154.742 199.83 155C200.087 155.258 200.232 155.609 200.233 155.974V174.434C200.232 174.799 200.087 175.149 199.83 175.408C199.572 175.666 199.223 175.811 198.859 175.812ZM124.663 155.147C124.445 155.147 124.235 155.234 124.081 155.389C123.926 155.544 123.839 155.755 123.839 155.974V174.434C123.839 174.653 123.926 174.863 124.081 175.018C124.235 175.173 124.445 175.261 124.663 175.261H198.859C199.077 175.261 199.287 175.173 199.442 175.018C199.596 174.863 199.683 174.653 199.683 174.434V155.974C199.683 155.755 199.596 155.544 199.442 155.389C199.287 155.234 199.077 155.147 198.859 155.147H124.663Z" fill="#F8F5F2"/>
<path d="M147.609 161.344C147.354 161.344 147.109 161.445 146.929 161.626C146.748 161.807 146.647 162.053 146.647 162.308C146.647 162.564 146.748 162.81 146.929 162.991C147.109 163.172 147.354 163.273 147.609 163.273H192.95C193.202 163.272 193.442 163.172 193.621 162.994C193.8 162.817 193.902 162.576 193.907 162.324C193.911 162.072 193.816 161.828 193.643 161.645C193.47 161.462 193.233 161.354 192.982 161.344H147.609V161.344Z" fill="#F8F5F2"/>
<path d="M147.609 167.132C147.354 167.132 147.109 167.234 146.929 167.415C146.748 167.596 146.647 167.841 146.647 168.097C146.647 168.353 146.748 168.598 146.929 168.779C147.109 168.96 147.354 169.062 147.609 169.062H192.95C193.202 169.061 193.442 168.96 193.621 168.783C193.8 168.606 193.902 168.365 193.907 168.113C193.911 167.861 193.816 167.617 193.643 167.434C193.47 167.25 193.233 167.142 192.982 167.133H147.609V167.132Z" fill="#F8F5F2"/>
<path d="M198.859 206.681H124.663C124.299 206.68 123.95 206.535 123.692 206.277C123.435 206.018 123.29 205.668 123.289 205.303V186.843C123.29 186.478 123.435 186.128 123.692 185.869C123.95 185.611 124.299 185.466 124.663 185.465H198.859C199.223 185.466 199.572 185.611 199.83 185.869C200.087 186.128 200.232 186.478 200.233 186.843V205.303C200.232 205.668 200.087 206.019 199.83 206.277C199.572 206.535 199.223 206.681 198.859 206.681V206.681ZM124.663 186.016C124.445 186.016 124.235 186.104 124.081 186.259C123.926 186.414 123.839 186.624 123.839 186.843V205.303C123.839 205.522 123.926 205.733 124.081 205.888C124.235 206.043 124.445 206.13 124.663 206.13H198.859C199.077 206.13 199.287 206.043 199.442 205.888C199.596 205.733 199.683 205.522 199.683 205.303V186.843C199.683 186.624 199.596 186.414 199.442 186.259C199.287 186.104 199.077 186.016 198.859 186.016H124.663Z" fill="#F8F5F2"/>
<path d="M147.609 192.214C147.354 192.214 147.109 192.316 146.929 192.497C146.748 192.677 146.647 192.923 146.647 193.179C146.647 193.435 146.748 193.68 146.929 193.861C147.109 194.042 147.354 194.143 147.609 194.143H192.95C193.076 194.148 193.202 194.128 193.321 194.084C193.439 194.04 193.548 193.973 193.641 193.887C193.733 193.801 193.808 193.697 193.861 193.582C193.914 193.467 193.943 193.343 193.948 193.216C193.953 193.09 193.933 192.963 193.889 192.844C193.845 192.726 193.779 192.617 193.693 192.524C193.607 192.431 193.504 192.356 193.389 192.303C193.274 192.25 193.15 192.22 193.024 192.215C193.01 192.214 192.996 192.214 192.981 192.214H147.609L147.609 192.214Z" fill="#F8F5F2"/>
<path d="M147.609 198.002C147.354 198.002 147.109 198.104 146.929 198.285C146.748 198.466 146.647 198.711 146.647 198.967C146.647 199.223 146.748 199.468 146.929 199.649C147.109 199.83 147.354 199.932 147.609 199.932H192.95C193.076 199.937 193.202 199.917 193.321 199.873C193.439 199.829 193.548 199.762 193.641 199.676C193.733 199.59 193.808 199.486 193.861 199.371C193.914 199.256 193.943 199.131 193.948 199.005C193.953 198.878 193.933 198.752 193.889 198.633C193.845 198.514 193.779 198.405 193.693 198.312C193.607 198.219 193.504 198.144 193.389 198.091C193.274 198.038 193.15 198.008 193.024 198.004C193.01 198.003 192.996 198.003 192.981 198.003H147.609L147.609 198.002Z" fill="#F8F5F2"/>
<path d="M267.3 258H0.699551C0.312938 258 -3.05176e-05 257.831 -3.05176e-05 257.622C-3.05176e-05 257.413 0.313299 257.243 0.699551 257.243H267.3C267.687 257.243 268 257.413 268 257.622C268 257.831 267.687 258 267.3 258Z" fill="#FFFFFE"/>
<path d="M256.01 243.24C254.871 243.642 253.648 243.742 252.459 243.532C251.27 243.322 250.155 242.808 249.221 242.041C246.843 240.039 246.098 236.741 245.491 233.688L243.697 224.656L247.453 227.25C250.154 229.116 252.916 231.041 254.787 233.743C256.658 236.445 257.474 240.134 255.971 243.058" fill="#FFFFFE"/>
<path d="M255.43 254.804C255.902 251.349 256.389 247.85 256.057 244.358C255.762 241.257 254.819 238.229 252.899 235.745C251.879 234.429 250.639 233.302 249.234 232.414C248.867 232.182 248.53 232.765 248.895 232.996C251.327 234.537 253.208 236.814 254.266 239.497C255.436 242.481 255.624 245.733 255.422 248.902C255.3 250.819 255.041 252.723 254.781 254.625C254.761 254.711 254.774 254.801 254.817 254.878C254.861 254.955 254.932 255.013 255.016 255.039C255.102 255.062 255.193 255.05 255.27 255.006C255.348 254.962 255.405 254.89 255.429 254.804H255.43Z" fill="#FFFFFE"/>
<path d="M252.027 249.26C251.538 250.005 250.867 250.611 250.077 251.02C249.287 251.429 248.406 251.627 247.517 251.595C245.235 251.486 243.332 249.888 241.619 248.372L236.553 243.884L239.906 243.724C242.317 243.608 244.791 243.5 247.089 244.246C249.388 244.992 251.505 246.787 251.924 249.17" fill="#FFFFFE"/>
<path d="M256.765 256.789C254.491 252.75 251.85 248.261 247.133 246.826C245.821 246.428 244.446 246.286 243.081 246.406C242.651 246.443 242.758 247.109 243.189 247.072C245.477 246.881 247.761 247.487 249.655 248.787C251.479 250.032 252.898 251.763 254.099 253.598C254.835 254.72 255.494 255.894 256.154 257.064C256.363 257.438 256.979 257.168 256.765 256.789Z" fill="#FFFFFE"/>
<path d="M133.92 140.11C137.107 140.11 139.69 137.518 139.69 134.322C139.69 131.125 137.107 128.534 133.92 128.534C130.733 128.534 128.149 131.125 128.149 134.322C128.149 137.518 130.733 140.11 133.92 140.11Z" fill="#F45D48"/>
<path d="M131.157 133.241C131.091 133.241 131.037 133.673 131.037 134.205C131.037 134.738 131.091 135.17 131.157 135.17H136.831C136.898 135.179 136.953 134.754 136.954 134.222C136.991 133.89 136.95 133.554 136.835 133.241H131.157V133.241Z" fill="#F8F5F2"/>
<path d="M133.92 170.992C137.107 170.992 139.69 168.4 139.69 165.204C139.69 162.007 137.107 159.416 133.92 159.416C130.733 159.416 128.149 162.007 128.149 165.204C128.149 168.4 130.733 170.992 133.92 170.992Z" fill="#F45D48"/>
<path d="M131.157 164.123C131.091 164.123 131.037 164.555 131.037 165.087C131.037 165.62 131.091 166.052 131.157 166.052H136.831C136.898 166.061 136.953 165.636 136.954 165.104C136.991 164.772 136.95 164.436 136.835 164.123H131.157V164.123Z" fill="#F8F5F2"/>
<path d="M133.92 201.861C137.107 201.861 139.69 199.27 139.69 196.073C139.69 192.876 137.107 190.285 133.92 190.285C130.733 190.285 128.149 192.876 128.149 196.073C128.149 199.27 130.733 201.861 133.92 201.861Z" fill="#F45D48"/>
<path d="M131.157 194.992C131.091 194.992 131.037 195.424 131.037 195.956C131.037 196.489 131.091 196.921 131.157 196.921H136.831C136.898 196.93 136.953 196.505 136.954 195.973C136.991 195.641 136.95 195.305 136.835 194.992H131.157V194.992Z" fill="#F8F5F2"/>
<path d="M153.311 62.8595L151.269 64.9077L168.371 82.0611L170.413 80.0129L153.311 62.8595Z" fill="#FFFFFE"/>
<path d="M170.413 64.9077L168.371 62.8595L151.269 80.0129L153.311 82.061L170.413 64.9077Z" fill="#FFFFFE"/>
<path d="M32.5821 165.152C33.0824 164.974 33.5377 164.689 33.9161 164.316C34.2945 163.942 34.5867 163.491 34.7721 162.992C34.9575 162.493 35.0317 161.96 34.9893 161.429C34.947 160.899 34.7892 160.384 34.527 159.921L43.0337 150.194L36.3932 149.276L29.3332 158.653C28.5873 159.146 28.0477 159.897 27.8166 160.762C27.5856 161.628 27.6792 162.549 28.0797 163.35C28.4801 164.151 29.1597 164.777 29.9895 165.109C30.8193 165.441 31.7418 165.456 32.5821 165.152Z" fill="#A0616A"/>
<path d="M42.8411 251.353L36.9083 251.353L34.0858 228.4L42.8422 228.4L42.8411 251.353Z" fill="#A0616A"/>
<path d="M44.3542 257.121L25.224 257.121V256.878C25.2241 254.897 26.0087 252.998 27.405 251.597C28.8014 250.197 30.6952 249.41 32.67 249.41H32.6705L44.3545 249.41L44.3542 257.121Z" fill="#2F2E41"/>
<path d="M73.8979 246.373L68.2319 248.138L58.7504 227.057L67.1129 224.453L73.8979 246.373Z" fill="#A0616A"/>
<path d="M77.0484 251.432L58.7785 257.122L58.7068 256.89C58.1213 254.998 58.3089 252.951 59.2284 251.198C60.1479 249.445 61.7239 248.13 63.6098 247.543L63.6103 247.543L74.7689 244.068L77.0484 251.432Z" fill="#2F2E41"/>
<path d="M38.2978 145.531L29.511 155.624L36.39 156.245L38.2978 145.531Z" fill="#078080"/>
<path d="M34.8644 158.541C34.8644 158.541 31.8123 160.071 31.4307 166.959C31.0492 173.847 32.5754 191.833 32.5754 191.833C32.5754 191.833 31.0495 199.869 32.5754 207.14C34.1013 214.41 31.0495 240.812 32.957 240.812C34.8644 240.812 44.7835 241.96 45.1651 240.812C45.5466 239.664 45.9282 222.445 45.9282 222.445C45.9282 222.445 48.9803 213.643 45.9282 208.288C45.9282 208.288 56.5847 226.952 63.4774 241.196C64.9859 244.313 76.4486 240.813 74.5412 237.369C72.6337 233.925 68.0557 218.236 68.0557 218.236C68.0557 218.236 64.6221 206.756 58.5182 201.782L61.5703 177.292C61.5703 177.292 68.0561 160.838 64.2416 158.542C60.4271 156.246 34.8644 158.541 34.8644 158.541Z" fill="#2F2E41"/>
<path d="M46.3094 96.1678C51.7876 96.1678 56.2285 91.7136 56.2285 86.2189C56.2285 80.7243 51.7876 76.27 46.3094 76.27C40.8312 76.27 36.3903 80.7243 36.3903 86.2189C36.3903 91.7136 40.8312 96.1678 46.3094 96.1678Z" fill="#A0616A"/>
<path d="M57.3732 96.9332L45.042 104.204C45.042 104.204 40.3203 106.871 38.5566 111.474C36.6766 116.38 37.7693 123.287 38.5566 124.867C40.0824 127.928 37.9165 135.581 37.9165 135.581L36.0091 153.183C36.0091 153.183 29.1421 159.688 34.4832 160.453C39.8243 161.219 49.3619 160.071 55.0845 160.453C60.8072 160.836 67.2926 161.602 65.3852 157.774C63.4778 153.947 61.1888 151.269 63.4778 143.617C65.269 137.629 65.1913 115.237 65.0729 105.781C65.0566 104.483 64.7094 103.21 64.0642 102.084C63.419 100.958 62.4974 100.016 61.3869 99.3482L57.3732 96.9332Z" fill="#078080"/>
<path opacity="0.1" d="M51.8429 108.987L52.9872 132.329L41.8957 154.858L40.0146 154.14L51.4599 133.094L51.8429 108.987Z" fill="#232323"/>
<path opacity="0.1" d="M64.4311 137.303V134.624L51.4614 156.053L64.4311 137.303Z" fill="#232323"/>
<path d="M39.2695 77.0025L37.631 76.345C37.631 76.345 41.0604 72.5589 45.83 72.888L44.4883 71.4064C44.4883 71.4064 47.7678 70.0896 50.7495 73.5462C52.3169 75.3635 54.1301 77.4997 55.2618 79.9056H57.018L56.2852 81.5244L58.8503 83.1432L56.2173 82.8536C56.4667 84.2511 56.3813 85.688 55.9682 87.0459L56.0404 88.3255C56.0404 88.3255 52.9869 83.5864 52.9869 82.9289V84.5752C52.9869 84.5752 51.3469 83.0936 51.3469 82.1059L50.4524 83.2583L50.0052 81.448L44.4893 83.2583L45.3831 81.776L41.9538 82.2699L43.2956 80.4596C43.2956 80.4596 39.4197 82.5994 39.2706 84.4105C39.1215 86.2215 37.1838 88.5257 37.1838 88.5257L36.2893 86.8794C36.2893 86.8794 34.9478 79.4718 39.2695 77.0025Z" fill="#2F2E41"/>
<path d="M45.6869 166.235C46.1478 165.971 46.5454 165.609 46.8518 165.174C47.1581 164.74 47.3657 164.243 47.4599 163.719C47.5541 163.195 47.5327 162.657 47.3971 162.142C47.2615 161.628 47.0151 161.149 46.6752 160.741L53.3255 149.654L46.6279 149.932L41.3395 160.417C40.6927 161.036 40.2945 161.87 40.2204 162.763C40.1462 163.656 40.4012 164.546 40.9371 165.263C41.473 165.98 42.2525 166.475 43.1279 166.654C44.0033 166.833 44.9138 166.684 45.6869 166.235Z" fill="#A0616A"/>
<path d="M60.8072 101.908L63.6684 101.335C63.6684 101.335 72.2522 107.648 69.5816 120.276C66.9111 132.903 55.0846 152.036 55.0846 152.036C55.0846 152.036 52.4133 155.48 51.6509 156.245C50.8885 157.01 49.3619 156.245 50.125 157.393C50.8881 158.541 48.9803 159.306 48.9803 159.306C48.9803 159.306 40.5871 159.306 41.3502 156.245C42.1133 153.184 55.0846 131.371 55.0846 131.371L53.1771 111.091C53.1771 111.091 51.6505 101.143 60.8072 101.908Z" fill="#078080"/>
</g>
<defs>
<clipPath id="clip0">
<rect width="268" height="258" fill="white"/>
</clipPath>
</defs>
</svg>
