<svg width="325" height="251" viewBox="0 0 325 251" fill="none" xmlns="http://www.w3.org/2000/svg">
<path d="M160.905 202.253C140.314 202.253 120.359 195.123 104.441 182.079C88.5236 169.034 77.6279 150.882 73.6107 130.715C69.5935 110.548 72.7033 89.6143 82.4102 71.4802C92.1171 53.3461 107.821 39.134 126.845 31.2652C145.869 23.3965 167.037 22.3581 186.743 28.327C206.448 34.2958 223.471 46.9026 234.911 63.9993C246.351 81.096 251.501 101.625 249.482 122.088C247.464 142.551 238.402 161.682 223.842 176.221C215.596 184.5 205.788 191.064 194.985 195.532C184.182 200 172.598 202.285 160.905 202.253ZM160.905 25.0785C112.147 25.0785 72.4799 64.6886 72.4799 113.376C72.4799 162.064 112.147 201.674 160.905 201.674C209.663 201.674 249.331 162.064 249.331 113.376C249.331 64.6886 209.663 25.0785 160.905 25.0785Z" fill="#F8F5F2"/>
<path d="M168.403 192.439C166.754 198.523 161.109 202.291 161.109 202.291C161.109 202.291 158.136 196.194 159.784 190.11C161.432 184.027 167.078 180.259 167.078 180.259C167.078 180.259 170.051 186.355 168.403 192.439Z" fill="#F45D48"/>
<path d="M153.408 192.439C155.057 198.523 160.702 202.291 160.702 202.291C160.702 202.291 163.675 196.194 162.027 190.11C160.379 184.027 154.733 180.259 154.733 180.259C154.733 180.259 151.76 186.355 153.408 192.439Z" fill="#F45D48"/>
<path d="M155.83 191.131C160.353 195.527 160.905 202.286 160.905 202.286C160.905 202.286 154.125 201.916 149.602 197.52C145.08 193.123 144.527 186.365 144.527 186.365C144.527 186.365 151.308 186.735 155.83 191.131Z" fill="#F8F5F2"/>
<path d="M165.981 191.131C161.458 195.527 160.905 202.286 160.905 202.286C160.905 202.286 167.686 201.916 172.209 197.52C176.731 193.123 177.284 186.365 177.284 186.365C177.284 186.365 170.503 186.735 165.981 191.131Z" fill="#F8F5F2"/>
<path d="M153.408 34.6487C155.057 28.5648 160.702 24.7968 160.702 24.7968C160.702 24.7968 163.675 30.8929 162.027 36.9769C160.379 43.0609 154.733 46.8288 154.733 46.8288C154.733 46.8288 151.76 40.7327 153.408 34.6487Z" fill="#F45D48"/>
<path d="M168.403 34.6487C166.754 28.5648 161.109 24.7968 161.109 24.7968C161.109 24.7968 158.136 30.8929 159.784 36.9769C161.432 43.0609 167.078 46.8288 167.078 46.8288C167.078 46.8288 170.051 40.7327 168.403 34.6487Z" fill="#F45D48"/>
<path d="M165.981 35.9562C161.458 31.5599 160.905 24.8018 160.905 24.8018C160.905 24.8018 167.686 25.1714 172.209 29.5678C176.731 33.9641 177.284 40.7222 177.284 40.7222C177.284 40.7222 170.503 40.3526 165.981 35.9562Z" fill="#F8F5F2"/>
<path d="M155.83 35.9562C160.353 31.5599 160.905 24.8018 160.905 24.8018C160.905 24.8018 154.125 25.1714 149.602 29.5678C145.08 33.9641 144.527 40.7222 144.527 40.7222C144.527 40.7222 151.308 40.3526 155.83 35.9562Z" fill="#F8F5F2"/>
<path d="M119.471 3.66992H4.24097V120.676H119.471V3.66992Z" fill="#F45D48"/>
<path d="M115.117 6.63971H12.4674H6.64926V12.8645V116.195H12.4674V12.8645H115.117V6.63971Z" fill="#F8F5F2"/>
<path opacity="0.3" d="M115.117 6.63971H12.4674H6.64926V12.8645V116.195H12.4674V12.8645H115.117V6.63971Z" fill="#232323"/>
<path opacity="0.1" d="M98.4935 12.8645H93.9221H12.4674V27.8039H93.9221V116.195H115.117V12.8645H98.4935Z" fill="#232323"/>
<path d="M0 0V122.835H121.766V0H0ZM115.117 116.195H6.64935V6.63975H115.117V116.195Z" fill="#FFFFFE"/>
<path d="M85.4538 127.364C85.4538 127.364 90.9599 138.016 94.0571 140.422C97.1543 142.827 89.0672 145.748 89.0672 145.748L79.6036 130.972L85.4538 127.364Z" fill="#A0616A"/>
<path d="M52.0731 101.419C52.0731 101.419 77.7109 108.12 79.9477 112.588C82.1846 117.055 89.0672 127.879 89.0672 127.879L78.9153 135.955L68.9355 121.007L41.4051 108.636L52.0731 101.419Z" fill="#232323"/>
<path d="M88.2068 141.453C88.2068 141.453 85.7979 139.391 85.1096 140.766C84.4214 142.14 82.3566 149.185 82.3566 149.185C82.3566 149.185 85.2817 151.934 91.304 150.215C91.304 150.215 92.8526 149.013 95.2615 150.215C97.6704 151.418 106.618 149.013 106.274 145.061C105.93 141.109 96.8101 141.453 96.8101 141.453C96.8101 141.453 92.969 137.156 92.4807 138.789C91.9923 140.422 92.6805 140.594 92.6805 140.594C92.6805 140.594 89.5834 143.858 88.2068 141.453Z" fill="#232323"/>
<path d="M58.7836 137.845L57.063 152.277H65.4942C65.4942 152.277 64.8059 141.109 64.978 139.735C65.1501 138.36 58.7836 137.845 58.7836 137.845Z" fill="#A0616A"/>
<path d="M63.6015 106.059C63.6015 106.059 68.2472 112.931 65.4942 113.447C62.7412 113.962 60.5043 106.059 60.5043 106.059H63.6015Z" fill="#A0616A"/>
<path d="M28.5002 105.371C28.5002 105.371 25.0589 115.508 38.652 118.258C52.2452 121.007 56.3748 123.24 56.3748 123.24L58.0954 140.766L69.9679 141.453C69.9679 141.453 75.6461 114.821 68.2473 111.385C60.8485 107.949 45.1905 103.997 45.1905 103.997L28.5002 105.371Z" fill="#232323"/>
<path d="M58.0954 150.044C58.0954 150.044 60.5043 148.841 60.8485 148.841C60.8485 148.841 62.3609 145.358 65.132 145.725L71.1724 154.511C71.1724 154.511 80.2919 161.04 73.9255 162.758C67.559 164.476 62.5691 163.102 62.5691 163.102L59.9881 161.212C59.9881 161.212 60.3323 159.322 58.0954 159.665C58.0954 159.665 53.4497 157.775 53.6217 156.401C53.7938 155.026 57.4486 149.043 57.4486 149.043L58.0954 150.044Z" fill="#232323"/>
<path d="M59.5579 71.9529C63.3591 71.9529 66.4405 68.8759 66.4405 65.0802C66.4405 61.2846 63.3591 58.2076 59.5579 58.2076C55.7567 58.2076 52.6753 61.2846 52.6753 65.0802C52.6753 68.8759 55.7567 71.9529 59.5579 71.9529Z" fill="#A0616A"/>
<path d="M53.9658 62.9326C53.9658 62.9326 47.7715 67.3998 46.567 67.5716C45.3625 67.7434 52.2452 76.1624 52.2452 76.1624C52.2452 76.1624 55.5144 70.8361 57.5792 70.1488C59.644 69.4616 53.9658 62.9326 53.9658 62.9326Z" fill="#A0616A"/>
<path d="M49.3201 68.6025C49.3201 68.6025 46.7391 65.1662 45.1905 65.1662C43.6419 65.1662 29.7046 66.7125 28.5002 78.2243C27.2957 89.736 27.984 109.839 27.984 109.839C27.984 109.839 26.9516 104.856 38.48 106.918C38.48 106.918 52.2452 103.997 54.6541 103.997C57.063 103.997 58.0954 79.427 58.0954 79.427L54.1777 73.3616C54.1777 73.3616 52.4173 76.6779 49.3201 68.6025Z" fill="#078080"/>
<path d="M55.5144 78.0524L58.0954 79.427L61.1926 98.3268L65.4942 108.12C65.4942 108.12 60.8484 106.523 60.5043 108.439L53.6217 98.4986L55.5144 78.0524Z" fill="#078080"/>
<path d="M58.0105 59.4439L61.7548 59.911C61.6834 60.6718 61.7032 61.6144 62.3784 61.9743C62.6957 62.1435 63.0985 62.1349 63.3798 62.3588C64.0563 62.8975 63.3945 64.0559 63.7765 64.8312L64.8716 65.1205C65.0032 65.3663 65.1821 65.5837 65.3981 65.7602C65.6142 65.9366 65.863 66.0687 66.1303 66.1488C66.3977 66.2288 66.6782 66.2553 66.9559 66.2267C67.2335 66.1981 67.5027 66.1149 67.748 65.982C68.4839 65.5407 68.8589 64.6977 69.19 63.907C69.5856 62.9622 69.9893 61.9472 69.7912 60.9425C69.5785 59.863 68.6953 58.966 68.6553 57.8665C68.6373 57.3747 68.7413 56.7616 68.3261 56.4964C68.1351 56.4067 67.9294 56.3522 67.719 56.3355C66.7624 56.136 66.2298 55.1474 65.5164 54.4805C64.0214 53.0829 61.7257 53.1196 59.6814 53.2415C59.0962 53.2436 58.5156 53.3447 57.9642 53.5404C57.341 53.8525 56.7899 54.2913 56.3464 54.8286C55.2501 55.9962 54.1828 57.2191 53.4595 58.6474C52.7363 60.0758 52.38 61.7447 52.7731 63.2963C52.7344 63.147 54.0356 62.17 54.1975 62.0135C54.706 61.5217 54.7523 61.2869 55.0275 60.7211C55.669 59.4021 56.561 59.2631 58.0105 59.4439Z" fill="#232323"/>
<path opacity="0.1" d="M46.9971 81.5746L47.5135 93.6019L55.1671 102.565L48.2017 92.571L46.9971 81.5746Z" fill="#232323"/>
<path opacity="0.1" d="M33.2321 84.8393L39.2543 98.7565L46.9972 105.114L38.7379 99.4437L33.2321 84.8393Z" fill="#232323"/>
<path d="M65.9444 96.1195L69.5833 98.619C69.7645 98.7616 69.8911 98.9621 69.9417 99.1869C69.9923 99.4117 69.9639 99.6471 69.8613 99.8534L69.3746 100.856L69.4873 100.934L68.9343 102.073L68.8216 101.996L64.8134 110.255C64.7718 110.364 64.7062 110.462 64.6216 110.542C64.537 110.621 64.4355 110.681 64.3246 110.717C64.2137 110.752 64.0963 110.762 63.981 110.746C63.8657 110.73 63.7555 110.688 63.6586 110.624L60.239 108.275C60.0306 108.111 59.8851 107.88 59.8269 107.622C59.7686 107.363 59.8013 107.093 59.9193 106.855L64.98 96.427C65.0147 96.3363 65.0695 96.2546 65.1401 96.1879C65.2108 96.1212 65.2956 96.0713 65.3882 96.0418C65.4808 96.0122 65.5789 96.0039 65.6752 96.0174C65.7715 96.0308 65.8635 96.0657 65.9444 96.1195Z" fill="#F8F5F2"/>
<path d="M60.2964 106.764L64.2129 109.454L69.3222 98.926L65.4054 96.2357L60.2964 106.764Z" fill="#F8F5F2"/>
<path d="M58.5958 104.447C58.5958 104.447 65.421 109.169 63.0425 110.647C60.6639 112.124 55.7094 105.568 55.7094 105.568L58.5958 104.447Z" fill="#A0616A"/>
<path d="M38.3079 69.4616C38.3079 69.4616 29.3605 72.0389 31.9415 79.9424C32.5641 81.849 33.3168 83.8955 34.1007 85.9035C36.5665 92.2197 39.3403 98.155 39.3403 98.155L47.1175 105.177L57.5792 108.12L58.7837 107.089C58.7837 107.089 59.1278 103.825 57.5792 103.481C56.0306 103.138 53.6217 101.763 53.6217 101.763L47.4274 92.6568C47.4274 92.6568 47.2553 69.9771 38.3079 69.4616Z" fill="#078080"/>
<path d="M208.374 204.796H320.86V90.5751L208.374 90.5751V204.796Z" fill="#F45D48"/>
<path d="M212.624 93.4742H312.829H318.509V99.5509V200.422H312.829V99.5509H212.624V93.4742Z" fill="#F8F5F2"/>
<path opacity="0.3" d="M212.624 93.4742H312.829H318.509V99.5509V200.422H312.829V99.5509H212.624V93.4742Z" fill="#232323"/>
<path opacity="0.1" d="M228.852 99.5508H233.314H312.829V114.134H233.314V200.421H212.624V99.5508H228.852Z" fill="#232323"/>
<path d="M206.133 86.9925V206.903H325V86.9925H206.133ZM212.624 93.4741H318.509V200.421H212.624V93.4741Z" fill="#FFFFFE"/>
<path d="M275.59 143.525C273.031 139.207 267.967 139.005 267.967 139.005C267.967 139.005 263.032 138.375 259.866 144.953C256.916 151.084 252.844 157.003 259.211 158.438L260.361 154.864L261.073 158.704C261.98 158.769 262.889 158.785 263.797 158.751C270.616 158.531 277.11 158.815 276.901 156.372C276.623 153.124 278.053 147.681 275.59 143.525Z" fill="#232323"/>
<path d="M257.141 178.382L256.602 188.061L272.398 189.674L272.937 179.636L267.552 176.231L257.141 178.382Z" fill="#A0616A"/>
<path d="M299.593 199.622C299.119 195.049 280.313 192.974 275.794 192.54L274.104 191.556L273.565 185.82C273.565 185.82 256.872 184.386 255.615 184.207C254.359 184.028 253.282 186.358 253.282 186.896C253.282 187.284 253.047 190.059 252.104 191.704C250.067 193.338 243.858 198.48 243.858 200.428C243.858 202.758 248.794 232.064 248.794 232.064L249.333 238.158L254.359 239.055L254 220.055C254 220.055 255.795 209.121 253.282 206.074V204.82C253.282 204.82 260.652 202.902 263.25 200.814C264.003 200.653 266.118 200.255 267.286 200.601C267.447 200.695 267.631 200.792 267.837 200.89C267.863 200.914 267.888 200.939 267.911 200.966L267.931 200.935C271.292 202.506 279.912 204.487 283.438 203.923C286.157 203.509 288.937 204.014 291.336 205.357C289.361 207.867 290.797 215.036 290.797 215.036L290.977 230.451L293.49 233.498H296.9V225.074C296.9 225.074 300.131 204.82 299.593 199.622Z" fill="#232323"/>
<path d="M266.385 155.349C269.657 155.349 272.309 152.701 272.309 149.434C272.309 146.168 269.657 143.519 266.385 143.519C263.114 143.519 260.462 146.168 260.462 149.434C260.462 152.701 263.114 155.349 266.385 155.349Z" fill="#A0616A"/>
<path d="M262.795 153.198C262.795 153.198 263.693 157.142 262.436 157.5C261.442 157.829 260.481 158.249 259.564 158.755L258.128 163.415V168.075L275.54 170.047L276.078 168.434V166.104L274.104 162.519L273.206 161.623C273.206 161.623 269.257 157.321 270.155 153.198H262.795Z" fill="#A0616A"/>
<path d="M278.322 167.448C278.322 167.448 278.861 173.721 278.322 176.589C277.784 179.457 277.963 183.759 277.963 183.759L274.014 183.042V173.363L274.911 168.165L278.322 167.448Z" fill="#A0616A"/>
<path d="M268.586 142.684C270.609 142.684 272.248 141.047 272.248 139.027C272.248 137.008 270.609 135.371 268.586 135.371C266.564 135.371 264.925 137.008 264.925 139.027C264.925 141.047 266.564 142.684 268.586 142.684Z" fill="#232323"/>
<path d="M264.539 138.065C264.54 137.162 264.874 136.291 265.479 135.62C266.084 134.948 266.916 134.524 267.816 134.429C267.688 134.416 267.559 134.409 267.43 134.409C266.459 134.409 265.528 134.794 264.841 135.48C264.154 136.165 263.769 137.095 263.769 138.065C263.769 139.035 264.154 139.965 264.841 140.65C265.528 141.336 266.459 141.721 267.43 141.721C267.559 141.721 267.688 141.714 267.816 141.701C266.916 141.606 266.084 141.182 265.479 140.51C264.874 139.839 264.54 138.968 264.539 138.065Z" fill="#232323"/>
<path d="M274.459 143.109L269.456 140.492L262.547 141.563L261.117 147.867L264.676 147.73L265.67 145.414V147.692L267.311 147.629L268.264 143.942L268.86 147.867L274.697 147.748L274.459 143.109Z" fill="#232323"/>
<path d="M254.079 232.139C254.079 232.139 256.627 233.336 257.376 233.785C258.125 234.234 261.121 233.336 260.522 236.029C259.923 238.722 257.376 241.266 257.376 241.266C257.376 241.266 256.177 242.612 256.177 243.51C256.177 244.408 253.18 251.29 249.585 250.991C245.989 250.691 246.588 247.101 246.588 247.101L247.337 243.211C247.337 243.211 248.835 236.628 249.135 236.777C249.435 236.927 250.184 237.974 250.184 237.974C250.184 237.974 253.93 236.478 254.079 232.139Z" fill="#078080"/>
<path d="M291.436 227.658C291.436 227.658 288.888 228.855 288.139 229.304C287.39 229.753 284.393 228.855 284.993 231.548C285.592 234.241 288.139 236.785 288.139 236.785C288.139 236.785 289.338 238.131 289.338 239.029C289.338 239.926 292.335 246.809 295.93 246.509C299.526 246.21 298.927 242.62 298.927 242.62L298.178 238.73C298.178 238.73 296.68 232.147 296.38 232.296C296.08 232.446 295.331 233.493 295.331 233.493C295.331 233.493 291.585 231.997 291.436 227.658Z" fill="#078080"/>
<path d="M271.687 185.013V183.59H271.37V182.958C271.37 182.813 271.342 182.669 271.286 182.534C271.23 182.4 271.149 182.278 271.046 182.175C270.943 182.073 270.821 181.991 270.686 181.936C270.552 181.88 270.408 181.851 270.262 181.851H266.463C266.17 181.851 265.888 181.968 265.68 182.175C265.472 182.383 265.355 182.664 265.355 182.958V193.547C265.355 193.841 265.472 194.122 265.68 194.33C265.888 194.537 266.17 194.654 266.463 194.654H270.262C270.556 194.654 270.838 194.537 271.046 194.33C271.253 194.122 271.37 193.841 271.37 193.547V186.909H271.687V185.487H271.37V185.013H271.687Z" fill="#078080"/>
<path d="M268.521 185.645C268.871 185.645 269.154 185.362 269.154 185.013C269.154 184.663 268.871 184.38 268.521 184.38C268.171 184.38 267.888 184.663 267.888 185.013C267.888 185.362 268.171 185.645 268.521 185.645Z" fill="#F8F5F2"/>
<path d="M252.653 164.401L249.422 177.665C249.422 177.665 248.166 180.532 251.038 182.325C253.91 184.117 260.372 186.447 260.372 186.447C260.372 186.447 266.116 194.334 266.834 191.108C267.552 187.881 262.526 183.759 262.526 183.759L253.73 178.202L257.141 168.882L252.653 164.401Z" fill="#A0616A"/>
<path d="M275.988 181.07C275.988 181.07 278.681 180.712 278.501 183.759C278.322 186.806 274.732 187.164 274.732 187.164C274.732 187.164 273.116 193.976 270.783 192.721C268.449 191.466 272.039 184.655 272.039 184.655L275.091 182.325L275.988 181.07Z" fill="#A0616A"/>
<path d="M258.667 163.236L261.539 157.321L255.795 159.292C255.795 159.292 252.564 160.906 252.384 164.67C252.205 168.434 256.513 170.405 256.513 170.405C256.513 170.405 257.231 175.783 256.872 176.5C256.513 177.217 256.872 180.084 256.872 180.084C256.872 180.084 263.783 178.202 267.193 180.532C270.604 182.863 273.386 181.518 273.386 181.518C273.386 181.518 273.206 177.037 274.642 176.32C276.078 175.603 277.335 172.198 276.078 170.047C276.078 170.047 278.95 170.405 278.771 167.717C278.591 165.028 277.155 162.698 274.822 161.623C272.488 160.547 272.23 160.375 272.23 160.375L275.54 166.462V168.075C275.54 168.075 269.681 164.341 263.885 164.03C261.994 163.944 260.137 164.554 258.667 165.745L258.667 165.745V163.236Z" fill="#232323"/>
</svg>
